<svg xmlns="http://www.w3.org/2000/svg" width="214.166" height="210.859" viewBox="0 0 214.166 210.859"><path opacity=".1" fill="#64594F" d="M214.166 108.531c0 56.511-45.818 102.328-102.33 102.328-56.51 0-102.328-45.817-102.328-102.328 0-56.512 45.818-102.33 102.328-102.33 56.512 0 102.33 45.819 102.33 102.33z"/><path fill="#CEAA87" d="M207.344 102.328c0 56.512-45.818 102.33-102.33 102.33-56.51 0-102.329-45.818-102.329-102.33.001-56.511 45.819-102.328 102.329-102.328 56.511 0 102.33 45.817 102.33 102.328z"/><path fill="#E2B58A" d="M201.762 104.189c0 52.744-42.763 95.508-95.507 95.508-52.743 0-95.506-42.764-95.506-95.508s42.763-95.507 95.505-95.507c52.745 0 95.508 42.763 95.508 95.507z"/><path fill="#BA9D82" d="M198.041 102.328c0 51.375-41.652 93.027-93.027 93.027-51.373 0-93.026-41.652-93.026-93.027 0-51.373 41.653-93.025 93.026-93.025 51.375 0 93.027 41.652 93.027 93.025z"/><path opacity=".1" fill="#64594F" d="M32.905 81.406c7.776-4.058 11.178-15.604 7.604-27.212-3.899-12.666-16.333-26.161-25.661-23.289s-12.018 21.024-8.119 33.689c3.743 12.158 13.776 19.958 22.826 18.02l.037.378.001.015.074.75.005.051c.535 5.387 1.574 15.017 3.187 26.622v.005l.246 1.747.001.009c4.355 30.748 12.634 74.084 26.084 89.621 2.668 2.746 6.974 4.104 9.924 3.195 2.95-.909 5.748-4.452 6.408-8.224 3.428-29.344-34.299-100.187-42.617-115.377z"/><path fill="#FFF9EE" d="M26.301 78.507l-1.033.318-1.033.317s8.238 97.581 29.957 122.668c2.668 2.746 6.974 4.104 9.924 3.195 2.95-.909 5.748-4.452 6.408-8.224 3.849-32.957-44.223-118.274-44.223-118.274z"/><path fill="#DFDAD1" d="M24.234 79.143s1.195 14.147 3.873 33.047c.23-8.726.262-25.054.832-28.885-1.661-3.062-2.638-4.798-2.638-4.798l-1.033.318-1.034.318z"/><path fill="#FFF9EE" d="M35.509 54.194c3.899 12.664-.5 25.261-9.829 28.133-9.328 2.872-20.051-5.069-23.95-17.733-3.9-12.665-1.21-30.817 8.118-33.689s21.762 10.623 25.661 23.289z"/><path fill="#D4CFC7" d="M33.88 53.258c3.617 11.748-.465 23.431-9.117 26.094-8.651 2.664-18.597-4.7-22.213-16.447s-1.121-28.581 7.53-31.245 20.184 9.852 23.8 21.598z"/><path fill="#DFDAD1" d="M22.062 70.577c-7.572 2.331-16.136-3.021-20.58-12.269.261 1.586.618 3.13 1.068 4.596 3.617 11.747 13.562 19.111 22.213 16.447 8.652-2.663 12.733-14.346 9.117-26.094-.451-1.465-1.026-2.941-1.702-4.399 1.528 10.146-2.543 19.388-10.116 21.719z"/><path opacity=".1" fill="#64594F" d="M172.807 92.912c10.017 37.381-12.171 75.812-49.553 85.829-37.383 10.017-75.813-12.17-85.831-49.554-10.016-37.383 12.172-75.814 49.554-85.83 37.382-10.016 75.814 12.171 85.83 49.555z"/><path opacity=".6" fill="#CEAA87" d="M199.282 142.202c5.189-12.255 8.062-25.729 8.062-39.874 0-2.388-.088-4.753-.25-7.101l-35.281 19.506 27.469 27.469z"/><path opacity=".4" fill="#CEAA87" d="M100.719 87.308l-43.843 63.965 53.259 53.258c40.158-1.979 74.231-27.111 89.147-62.328l-80.805-80.804-17.758 25.909"/><path fill="#E2B58A" d="M200.798 95.855h-42.946v24h42.946c6.755 0 12.231-5.246 12.231-12s-5.476-12-12.231-12z"/><path fill="#F9CB9F" d="M201.658 93.855h-39.807v22h39.807c6.279 0 11.371-4.722 11.371-11 0-6.28-5.091-11-11.371-11z"/><path fill="#F8C18D" d="M167.852 93.44v22.415h33.806z"/><path fill="#F9CB9F" d="M175.807 87.912c10.017 37.381-12.171 75.812-49.553 85.829-37.383 10.017-75.813-12.17-85.831-49.554-10.016-37.383 12.172-75.814 49.554-85.83 37.382-10.016 75.814 12.171 85.83 49.555z"/><path fill="#FCE0C5" d="M164.561 87.072c8.938 33.355-10.863 67.652-44.219 76.59-33.355 8.938-67.651-10.864-76.589-44.219-8.937-33.354 10.864-67.651 44.219-76.589s67.651 10.864 76.589 44.218z"/><path fill="#1E3739" d="M153.577 90.016c7.312 27.284-8.894 55.353-36.178 62.663-27.285 7.312-55.353-8.894-62.664-36.179-7.311-27.285 8.895-55.353 36.179-62.663 27.285-7.312 55.354 8.893 62.663 36.179z"/><path fill="#3C5052" d="M151.77 95.637c-11.771 20.382-35.471 29.59-57.2 23.929l-16.051 27.801c24.462 14.121 55.77 5.73 69.896-18.728 6.754-11.701 8.346-24.965 5.504-37.169-.651 1.405-1.359 2.798-2.149 4.167z"/></svg>