<svg xmlns="http://www.w3.org/2000/svg" width="77.695" height="77.412" viewBox="0 0 77.695 77.412"><path opacity=".1" fill="#64594F" d="M31.73 77.412l14.993-7.143-7.496-.6zM46.723 70.269l10.178 1.212 6.51-3.449-23.689 1.637zM69.857 27.617l-8.8-4.269v-.001.001l-8.961-4.347-6.046-1.512 1.591-6.691-.919-2.688-2.263 1.84-4.737-3.96-7.992 3.012 1.274-4.002-10.608 1.272-17.396 29.702 1.415 3.394 1.452 3.772h-.001l.001.001 1.196 3.109 3.137 8.15 3.465 9.002h-.001l.001.002 1.781 4.628v.895l2.898 1.639 4.437-1.845 2.449-1.019 6.339-5.776-3.253 6.106 1.414 9.38 3.677-3.935 4.836-5.066-1.017 1.258 19.368-1.311.008.006-.004-.007 4.812-.325 3.396-13.224-1.363.585 4.473-2.108 5.516-8.544 2.263-16.547-7.838-.577z"/><path fill="#FFF9EE" d="M17.396 1.272l-17.396 29.702 22.063-12.305 5.941-18.669z"/><path fill="#DBD4C9" d="M1.415 34.367l-1.415-3.393 22.063-12.305-6.158 22.581-3.459-8.014z"/><path fill="#C8C2B8" d="M33.095 10.607l-9.547 3.395-1.485 4.667-6.158 22.581 2.339 5.422 10.325.616v-1.182l2.688-9.436-8.911-1.878 5.516-7.213 4.187-13.577 5.43-2.405z"/><path fill="#FFF9EE" d="M1.415 34.367l11.031 28.665v-29.796z"/><path fill="#F2E9DC" d="M18.244 46.672l-5.798-13.436v30.691l2.899 1.638z"/><path fill="#DBD4C9" d="M28.569 56.926h17.821l9.052-4.175-26.873-6.645z"/><path fill="#F2E9DC" d="M28.569 46.106v-4.667l2.688-4.769 16.972 6.429h13.13l9.074-3.358-5.516 8.544-9.475 4.466z"/><path fill="#E5DDD1" d="M26.73 72.412l-1.414-9.38 3.253-6.106 1.838 11.552zM46.39 56.926h-17.821l1.838 11.552 8.062-8.447z"/><path fill="#F2E9DC" d="M28.569 56.926l1.838 11.552 8.062-8.447z"/><path fill="#E5DDD1" d="M47.097 18.527l-1.839 9.052-14.001 9.091 16.972 6.429h13.13l9.074-3.358-4.527-14.142z"/><path fill="#F2E9DC" d="M70.433 39.741l-4.527-14.142-18.809-7.072-1.839 9.052 25.175 12.162"/><path fill="#FFF9EE" d="M22.346 34.792l5.516-7.213 19.235-9.052-1.839 9.052-14.001 9.091z"/><path fill="#DBD4C9" d="M26.73 72.412l14.993-7.143-7.496-.6z"/><path fill="#E5DDD1" d="M61.808 49.809l-3.397 13.223-24.184 1.637 3.747-4.638z"/><path fill="#FFF5E6" d="M41.723 65.269l10.178 1.212 6.51-3.449-23.689 1.637z"/><path fill="#FFF9EE" d="M70.433 39.741l2.262-16.547-6.789 2.405z"/><path fill="#E5DDD1" d="M27.862 27.579l4.187-13.577 5.43-2.405 9.618 2.405v4.525z"/><path fill="#DBD4C9" d="M47.097 14.002v4.525l18.809 7.072 6.789-2.405-7.838-.577z"/><path fill="#E5DDD1" d="M15.345 65.565l6.885-2.863 6.339-9.648v-5.766l-10.325-.616z"/><path fill="#C8C2B8" d="M22.23 62.702l6.339-9.648v3.872z"/><path fill="#F2E9DC" d="M26.73 4.002l7.992-3.012-1.627 9.617-9.547 3.395z"/><path fill="#E5DDD1" d="M34.722.99l4.737 3.96-6.364 5.657z"/><path fill="#F2E9DC" d="M39.459 4.95l2.264-1.839.919 2.688-1.591 6.691-3.572-.893-4.384-.99z"/><g stroke="#D2CDC5" stroke-width=".5" stroke-miterlimit="10" fill="none"><path d="M22.346.679l-5.129 20.692M12.446 9.724l-4.911 17.047M12.446 33.236l2.155-10.405M2.866 38.14l9.58-1.47 5.575 11.464M4.063 41.25l8.383 2.735 4.819 9.069h11.304M7.2 49.4l5.246 2.116 3.978 7.017 8.04.769M10.664 58.402l1.148 1.629 3.972 2.671 3.997 1.019M38.752 22.021l.517 9.447M29.635 26.744l.772 9.747M30.907 17.702l5.369 5.492M36.276 12.49l6.366 7.958M28.569 3.31l5.023 1.499M24.629 10.607l3.94 1.61M25.653 65.269l3.982-.512M30.021 65.565l2.65-4.504 6.788-4.135M41.723 58.636v2.609l3.393 2.476M48.512 55.724v3.578l5.091 4.062M56.058 52.461v5.417l2.353 5.154M31.081 56.926l3.659-3.861 3.128-13.891M42.642 56.926l8.416-5.26-.85-4.378 1.693-4.189M57.234 51.516l2.34-8.417M64.545 41.92l4.226-7.371M45.258 27.579l-7.39 11.354M64.545 25.087l-4.971 7.584-5.019 9.73M56.058 18.348l1.176 4.483-6.176 7.128-5.942 11.961-1.574 4.186v3.703l-1.819 7.117M47.097 14.002l2.404 4.667-2.935 2.469"/></g></svg>