<svg xmlns="http://www.w3.org/2000/svg" width="276.376" height="281.555" viewBox="0 0 276.376 281.555"><path fill="#64594F" d="M187.88 257.476c-4.563 3.07-10.81 1.85-13.88-2.714l-114.792-170.584c-3.071-4.563-1.85-10.809 2.713-13.879l84.088-56.584c4.563-3.071 10.809-1.85 13.879 2.713l114.792 170.583c3.07 4.563 1.85 10.81-2.714 13.88l-84.086 56.585z" opacity=".1"/><path fill="#F0E7D9" d="M268.878 178.043l-117.931-175.31c-1.904-2.83-5.777-3.587-8.607-1.683l-85.35 57.106c-2.24 1.507-2.442 4.249-2.442 6.731v3.671c0 1.664-.27 3.498.761 5.027l118.991 176.888c1.904 2.829 5.758 3.586 8.588 1.682l85.419-57.104c3.149-1.717 5.022-5.469 4.386-7.943-.001-.002-2.788-7.539-3.815-9.065z"/><path opacity=".1" fill="#64594F" d="M4.634 100.862l6.139 6.14M23.964 105.293l4.417 7.475"/><path opacity=".1" fill="#64594F" d="M193.692 242.236l1.588-.97 2.141 3.506-1.588.97z"/><path fill="#FFF9EE" d="M178.863 246.092c-2.829 1.905-6.703 1.147-8.607-1.684l-117.649-174.827c-1.904-2.831-1.146-6.704 1.683-8.607l88.332-59.442c2.83-1.904 6.704-1.146 8.608 1.684l117.647 174.828c1.904 2.831 1.146 6.705-1.683 8.607l-88.331 59.441z"/><path fill="#7CC8A3" d="M161.764 215c-1.369.921-3.243.555-4.164-.814l-84.944-126.231c-.921-1.369-.555-3.243.814-4.164l83.069-55.897c1.369-.921 3.243-.555 4.164.814l84.942 126.23c.921 1.369.555 3.243-.814 4.164l-83.067 55.898z"/><path stroke="#DFD9C6" stroke-miterlimit="10" d="M70.981 85.466l85.558-57.572c1.369-.921 3.243-.555 4.164.814l86.617 128.719" fill="none"/><circle fill="#DFD9C6" cx="212.667" cy="200.974" r="9.976"/><circle fill="#DFD9C6" cx="104.294" cy="39.928" r="2.521"/><circle stroke="#E6E2D9" stroke-miterlimit="10" cx="212.667" cy="200.974" r="11.291" fill="none"/><path stroke="#FFF9EE" stroke-miterlimit="10" fill="none" d="M209.805 200.117l3.601-2.424 2.424 3.602-3.601 2.424z"/><path fill="#DFD9C6" d="M92.656 56.566l31.385-21.121 1.731 2.572-31.385 21.121z"/><path fill="#F0E7D9" d="M92.317 56.048l31.388-21.121 1.73 2.571-31.388 21.121z"/><ellipse transform="matrix(.861 -.508 .508 .861 -95.227 132.109)" fill="#D1CEC6" cx="194.438" cy="240.53" rx="2.357" ry="1.861"/><path fill="#D6D0BE" d="M219.266 221.872l18.77-12.737 1.801 2.654-18.77 12.737z"/><path fill="#FFF9EE" d="M193.692 240.996l1.588-.97 2.141 3.506-1.588.97zM109.837 119.348l69.526-47.756 7.725 11.246-69.526 47.756z"/><path stroke="#DFD9C6" stroke-miterlimit="10" fill="none" d="M178.748 71.254l8.253 12.013-68.756 47.229"/><circle stroke="#FFF5E6" stroke-miterlimit="10" cx="126.105" cy="77.981" r="9.922" fill="none"/><path stroke="#FFF5E6" stroke-miterlimit="10" fill="none" d="M136.393 78.42h11.639"/><path stroke="#1E3739" stroke-miterlimit="10" fill="none" d="M126.284 110.126l5.579 8.166"/><text transform="matrix(.828 -.561 .561 .828 117.637 124.508)" fill="#1E3739" font-family="'MyriadPro-Regular'" font-size="8.062">app</text><path opacity=".1" fill="#64594F" d="M196.238 244.161l-.952.307c4.35 13.483 2.01 24.348-6.588 30.591-11.639 8.452-32.905 6.79-47.402-3.706-14.274-10.334-19.113-26.688-13.277-44.87 5.564-17.333-.767-35.807-17.368-50.684-8.488-7.606-18.571-13.152-27.791-15.81-9.645-18.337-30.579-29.824-45.135-35.918-.193-4.845 2.12-11.303-1.158-16.684-.099-.195-.198-.391-.314-.581-2.448-4.018-7.965-4.865-11.85-2.5l-.447.272v-.001l-.831.507c-.463-.308-.956-.252-1.291-.048-.474.289-.848.99-.27 1.939l7.886 12.947c.579.949 1.374.939 1.848.648.34-.207.621-.625.546-1.192l1.269-.772c.315-.191.611-.404.891-.634l.341-.316c.149-.136.305-.267.443-.411v-.001l.016-.015c.429 2.08.536 4.093.82 5.98-6.508-2.608-11.418-4.046-12.923-4.465-.146-.489-.682-.818-.849-.955-2.463-2.024-5.804-2.602-9.101-4.16.315-.182.62-.382.913-.604.288-.217.563-.454.823-.714l1.047-1.047.001-.002.002-.002c.534.207 1.008.032 1.289-.249.393-.393.591-1.162-.195-1.949l-10.72-10.72c-.786-.785-1.556-.588-1.949-.195-.276.277-.448.741-.258 1.265l-.688.688v.001l-.37.369c-3.216 3.217-3.694 8.778-.368 12.105.158.157.325.3.491.442 5.483 5.482 14.548 3.123 18.764 6.4.135.105.604.355.92.174 2.001.579 6.996 2.118 13.369 4.726.195.951.457 1.869.875 2.736.096.199.297.818.76 1.064 5.459 15.761 11.446 18.341 14.77 18.341.539 0 1.008-.068 1.394-.158 3.618-.847 6.278-4.892 6.282-9.21 8.546 5.876 16.565 13.326 21.632 22.531-7.153-1.862-13.706-1.93-18.469.197-5.209 2.327-7.963 7.097-7.963 13.792 0 10.683 7.506 20.212 14.92 24.104 4.805 2.523 9.272 2.657 12.576.376 3.316-2.288 6.898-8.08 5.129-22.679-.622-5.132-2.118-9.867-4.26-14.231 8.814 2.71 18.394 8.081 26.516 15.359 16.294 14.602 22.521 32.693 17.083 49.635-5.977 18.619-1.004 35.38 13.643 45.985 8.55 6.19 19.115 9.393 28.879 9.392 7.449 0 14.433-1.864 19.697-5.688 8.977-6.513 11.445-17.774 6.952-31.702zm-142.845-98.831c-5.164 1.215-10.74-5.326-14.969-17.487.071-.266-.013-.591-.067-.71-.274-.61-.444-1.274-.541-1.981 6.374 2.716 13.867 6.43 21.059 11.246.291 4.067-2.169 8.158-5.482 8.932zm33.341 30.206c1.709 14.102-1.614 19.603-4.704 21.734-2.984 2.059-7.083 1.903-11.543-.438-7.148-3.753-14.385-12.933-14.385-23.219 0-6.361 2.48-10.694 7.371-12.879 2.322-1.037 5.086-1.53 8.15-1.53 3.237 0 6.807.551 10.536 1.595 2.316 4.497 3.929 9.4 4.575 14.737z"/><path fill="#FFF9EE" d="M14.015 113.504c.624-.359 1.212-.793 1.736-1.317l1.05-1.051c.534.207 1.008.032 1.289-.249.393-.393.591-1.162-.195-1.949l-10.72-10.72c-.785-.785-1.555-.588-1.948-.196-.277.278-.449.743-.258 1.266l-1.058 1.058c-3.216 3.217-3.694 8.778-.368 12.105.158.157.325.3.491.442 5.483 5.482 14.548 3.123 18.764 6.4.18.141.953.538 1.166-.17.232-.771-.629-1.28-.848-1.46-2.463-2.023-5.804-2.601-9.101-4.159z"/><path fill="#E6E2D9" d="M15.751 112.187l1.047-1.047.001-.002-9.104-2.005c2.106 2.105 4.26 3.384 6.337 4.359.618-.357 1.2-.786 1.719-1.305zM4.988 99.268l6.14 6.14-.707.707-6.14-6.14z"/><path fill="#FFF9EE" d="M197.502 244.034l-.952.307c4.35 13.483 2.01 24.348-6.588 30.591-11.639 8.452-32.905 6.79-47.402-3.706-14.274-10.334-19.113-26.688-13.277-44.87 5.564-17.333-.767-35.807-17.368-50.684-8.488-7.606-18.571-13.152-27.791-15.81-15.493-29.455-60.117-41.24-60.642-41.375l-.714.715c.341.088 19.764 5.276 37.371 17.068.291 4.067-2.17 8.158-5.482 8.933-5.247 1.234-10.923-5.526-15.176-18.069l-.947.32c5.509 16.25 11.597 18.881 14.958 18.881.539 0 1.008-.068 1.394-.158 3.618-.847 6.278-4.892 6.282-9.21 8.546 5.876 16.565 13.326 21.632 22.531-7.153-1.862-13.706-1.93-18.469.197-5.209 2.327-7.963 7.097-7.963 13.792 0 10.683 7.506 20.212 14.92 24.104 4.805 2.523 9.272 2.657 12.576.376 3.316-2.288 6.898-8.08 5.129-22.679-.622-5.132-2.118-9.867-4.26-14.231 8.814 2.71 18.394 8.081 26.516 15.359 16.294 14.602 22.521 32.693 17.083 49.635-5.977 18.619-1.004 35.38 13.643 45.985 8.55 6.19 19.115 9.393 28.879 9.392 7.449 0 14.433-1.864 19.697-5.688 8.975-6.517 11.444-17.778 6.951-31.706zm-109.504-68.625c1.709 14.102-1.614 19.603-4.704 21.734-2.984 2.059-7.083 1.903-11.543-.438-7.148-3.753-14.385-12.933-14.385-23.219 0-6.361 2.48-10.694 7.371-12.879 2.322-1.037 5.086-1.53 8.15-1.53 3.237 0 6.807.551 10.536 1.595 2.315 4.497 3.929 9.4 4.575 14.737zM36.068 117.104c-.497.522-1.057.99-1.69 1.377l-1.269.772c.075.567-.207.985-.546 1.192-.475.291-1.269.301-1.848-.648l-7.886-12.947c-.578-.949-.204-1.65.27-1.939.335-.204.828-.26 1.291.048l1.277-.778c3.885-2.365 9.402-1.518 11.85 2.5.116.19.215.386.314.581 4.033 6.622-.399 14.875 1.79 19.745.095.208.298 1.053-.44 1.093-.805.044-1.095-.913-1.218-1.169-1.386-2.873-1.159-6.255-1.895-9.827z"/><path fill="#E6E2D9" d="M34.377 118.48l-1.264.77-.002.001.201-9.32c1.549 2.544 2.283 4.938 2.741 7.188-.494.515-1.048.98-1.676 1.361zM25.22 104.446l4.517 7.415-.854.52-4.517-7.415z"/></svg>