<svg xmlns="http://www.w3.org/2000/svg" width="103" height="101.103" viewBox="0 0 103 101.103"><path opacity=".1" fill="#64594F" d="M0 6.103h103v95h-103z"/><path fill="#FFE4B0" d="M2 .103h95v95h-95z"/><path fill="#FFEBC4" d="M97 95.103h-95.678l95.678-95.103z"/><path fill="#D2B988" d="M96.27 95.103h-94.948l3.373 2h94.948zM97 94.947l3 2.41v-93.984l-3-3.373z"/><path stroke="#E7C98B" stroke-miterlimit="10" fill="none" d="M99.5 96.103v-93M98.5 96.103v-95"/><path fill="#ECD19D" d="M80 79.103h17v16h-17z"/><path fill="#FFF2DD" d="M80 94.947v-15.844h16.27z"/><path fill="#FFD98D" d="M2 .103h95v1h-95z"/><path stroke="#E7C98B" stroke-miterlimit="10" fill="none" d="M5 96.603h94M4 95.603h94"/><g opacity=".6" fill="#163E47"><path d="M24.246 39.872c.265-.118.27.227.026.293-.471.131-1.046.497-1.132 1.018-.282 1.546 2.311 1.316 3.144 1.146 1.137-.233 2.159-.704 3.099-1.38.284-.21 2.59-2.492 2.687-2.414.27.203-1.605 1.727-1.788 1.879-1.025.85-2.287 1.646-3.572 2.037-.961.292-2.402.406-3.241-.276-1.013-.824-.111-1.899.777-2.303zM31.268 38.622c.253-.331.263.143.079.341-.418.424-.759.973-1.008 1.51-.062.133-.498 1.38-.138 1.168.518-.196.982-.806 1.367-1.188.432-.501.622-.223 1.268-.034 1.262.37 2.667.53 3.788-.3 1.072-.778 1.975-1.807 2.699-2.911.067-.097.291-.187.291.022 0 .157-.202.338-.288.443-.388.459-.775.913-1.204 1.333-1.024 1.004-2.077 1.788-3.549 1.845-.897.035-1.843-.134-2.653-.523l.082-.016c-.217.201-2.036 1.879-2.068 1.293-.041-1.037.728-2.188 1.334-2.983zM45.305 35.978c.096.108-4.449 4.503-4.832 4.926l-1.229 1.393c-.536.612-.434 1.06-.632 1.823-.167.639-.532 1.214-1.209 1.379-.407.074-.578-.114-.434-.492.419-1.079 1.738-1.881 1.7-3.027-.044-1.32-.309-2.679-.172-4 .016-.15.472-1.061.472-.716.031.347-.238.804-.255 1.179-.089 1.335.125 2.678.087 4.016.594-.645 6.268-6.709 6.504-6.481zm-6.965 8.616c.238-.505.301-1.083.322-1.634-.551.64-1.208 1.309-1.566 2.082-.119.239-.069.402.221.363.47-.058.829-.392 1.023-.811zM52.936 34.672c.05-.043.372-.31.463-.201.104.131-2.218 2.277-2.4 2.484-.942 1.105-1.775 2.299-2.44 3.592-.717 1.395-1.215 2.889-1.559 4.417-.077.34-.318 2.886-.638 2.84-.917-.153 1.223-11.083 1.449-12.185l.193.1c-.318-.159-2.678 3.093-3.551 3.038-1.083.036-.055-2.775.201-2.674.192.104-.376 1.609-.396 1.797-.119 1.193.864.348 1.335-.049.244-.206 2.261-2.274 2.355-2.179-.28 0-1.14 6.602-1.232 7.32-.177 1.372-.328 2.77-.328 4.154-.001-.035.049.725-.075.478-.042-.085.11-.702.124-.792.093-.663.234-1.323.403-1.971.341-1.307.781-2.589 1.362-3.811 1.12-2.357 2.744-4.646 4.734-6.358zM70.209 31.298c.24.343-3.034 1.817-3.292 1.924-.826.341-1.667.617-2.534.831-.332.08-1.015.062-1.072.425-.09.571-.052.617.375 1.027.238.231 1.081.931.818 1.359-.311.477-1.266-.334-1.447-.602-.166-.261-.106-.615-.086-.904.031-.379-.141-.455-.426-.692-.029-.024-.283-.278-.283-.21l-.029-.06-.001.009.081-.104c.094.003-.487.072.233-.003.576-.06.603-.075.741-.643.19-.822.491-1.633.648-2.46-.131.175-1.469 2.05-1.715 1.812-.16-.166 1.009-1.284 1.105-1.4.496-.6.802-1.08 1.025-1.826.107-.36.617-2.85 1.102-2.859.623-.131-.609 2.819-.724 3.026-.354.639-.669 1.131-.852 1.843-.203.783-.4 1.58-.517 2.381 1.266-.239 2.5-.627 3.674-1.159.28-.126 3.1-1.818 3.176-1.715zm-7.336 3.477l.154.13.111-.583c-.224.041-.454.073-.68.1l.415.353zm.879 1.05c-.176-.19-.357-.374-.547-.551-.044.71.021 1.071.729 1.397.835.382.024-.628-.182-.846zm1.216-7.624c-.247.697-.469 1.402-.681 2.11.645-1 1.18-2.07 1.18-3.261-.254.301-.365.797-.499 1.151zM76.802 30.026c.258-.161.322.182.088.288-.412.176-.792.461-1.187.675-1.044.565-2.149 1.131-3.306 1.429-.482.125-.982.193-1.477.25-.432.068-.424.35-.681.736-.293.442-.688.957-1.252 1.037l.013-.002c-.691-.004-.805-1.042-.736-1.561.03-.459.264-.862.607-1.158.064-.056.752-.569.812-.257.038.198-.296.25-.416.301-.438.185-.751.612-.828 1.076-.145.871.348 2.062 1.256 1.098.372-.36.472-1.038.814-1.346.282-.253 1.139-.256 1.521-.323 1.781-.308 3.363-1.132 4.772-2.243zM26.43 54.241c.231-.214.384.065.171.244-.278.186-.523.441-.773.661-.782.688-1.603 1.371-2.48 1.935-.723.464-1.976 1.074-2.565.08-.25-.423-.171-.829-.227-1.273l.277.069c-.126-.034-.412.623-.483.736-.457.723-1.067 1.46-1.847 1.848-.663.329-1.655.414-1.772-.529-.03-.44.039-1.737.476-2.013.348-.224-.144 1.043-.167 1.123-.267.898-.07 1.744 1.056 1.444.878-.234 1.493-.962 1.991-1.675.132-.204.375-1.086.664-.985-.051-.016.079.755.088.786.269.928 1.125.909 1.875.586 1.457-.628 2.656-1.886 3.716-3.037zM32.432 53.116c.095.108-4.45 4.502-4.832 4.926l-1.229 1.393c-.538.613-.432 1.058-.632 1.823-.167.638-.534 1.213-1.209 1.379-.412.075-.572-.115-.434-.492.418-1.085 1.734-1.877 1.7-3.027-.039-1.321-.311-2.679-.172-4 .015-.14.464-1.074.472-.716.008.37-.235.785-.255 1.179-.092 1.335.128 2.677.086 4.015.598-.632 6.303-6.689 6.505-6.48zm-6.965 8.616c.239-.508.295-1.08.323-1.634-.552.638-1.209 1.309-1.567 2.082-.117.241-.07.401.222.363.47-.058.828-.392 1.022-.811zM31.639 53.192c.267-.117.269.227.026.293-.471.131-1.045.496-1.131 1.018-.289 1.546 2.315 1.316 3.144 1.146 1.136-.233 2.162-.702 3.1-1.38.286-.212 2.583-2.496 2.687-2.414.271.209-1.604 1.726-1.788 1.879-1.026.85-2.286 1.646-3.572 2.037-.965.292-2.397.404-3.241-.276-1.014-.824-.112-1.898.775-2.303zM56.349 48.623c.229.317-2.782 1.707-3.018 1.808-.796.341-1.606.631-2.443.854-.465.124-.935.226-1.405.324-.114.678-.153.744.344 1.222.243.233 1.073.926.818 1.358-.319.474-1.262-.331-1.448-.602-.164-.257-.111-.618-.085-.903.03-.377-.142-.457-.426-.692-.026-.022-.285-.279-.285-.211l-.029-.051.08-.104c.107.003-.623.086.233-.003.578-.06.603-.074.741-.643.199-.819.485-1.633.65-2.459-.132.157-1.488 2.053-1.715 1.811-.162-.156 1.013-1.29 1.105-1.4.496-.6.801-1.08 1.024-1.826.107-.358.62-2.853 1.103-2.859.647-.108-.608 2.815-.726 3.027-.353.64-.665 1.133-.851 1.843-.203.787-.372 1.58-.518 2.38 1.266-.232 2.504-.628 3.676-1.158.282-.128 3.096-1.822 3.175-1.716zm-7.337 3.478l.156.129c.031-.195.063-.392.111-.583-.225.038-.453.075-.68.1l.413.354zm.88 1.048c-.176-.19-.359-.372-.547-.551-.022.716.003 1.063.729 1.397.832.399.016-.636-.182-.846zm1.215-7.624c-.245.698-.466 1.403-.682 2.11.44-.672 1.602-2.417 1.18-3.261-.254.302-.361.797-.498 1.151zM62.941 47.352c.264-.161.314.175.088.288-.41.185-.789.46-1.186.675-1.045.566-2.15 1.13-3.306 1.429-.483.125-.982.192-1.478.249-.432.072-.422.347-.681.736-.294.442-.688.958-1.251 1.037l.012-.002c-.688-.002-.809-1.04-.738-1.559.03-.457.265-.867.608-1.16.061-.052.758-.569.812-.257.038.198-.294.25-.415.301-.439.183-.753.613-.829 1.076-.142.862.353 2.075 1.256 1.098.371-.359.473-1.04.813-1.346.283-.254 1.142-.257 1.522-.322 1.796-.308 3.343-1.149 4.773-2.243zM69.83 46.054c.262-.159.322.181.088.287-.406.203-.786.459-1.186.676-1.044.566-2.15 1.131-3.306 1.428-.483.125-.982.193-1.478.25-.432.072-.422.347-.681.736-.293.442-.688.958-1.251 1.037l.012-.002c-.688-.001-.808-1.041-.737-1.559.03-.458.264-.865.608-1.16.06-.052.758-.57.812-.257.038.199-.294.25-.415.301-.439.185-.752.611-.829 1.076-.145.872.349 2.061 1.257 1.098.371-.36.472-1.039.814-1.346.282-.253 1.139-.256 1.521-.322 1.795-.31 3.339-1.149 4.771-2.243zM77.709 44.58c.329.341-4.945 3.284-5.43 3.517-.591.285-1.605.974-2.299.865-.724-.318-.518-2.013-.484-2.606-.093.116-.206.16-.34.132-.002-.003.387-.782.397-.913.061-.711.155-1.417.246-2.125.168-1.323.476-2.644.878-3.915.125-.393 1.021-2.758 1.186-1.141.157 1.309-.181 2.795-.532 4.048-.204.729-.432 1.462-.748 2.151-.183.4-.983 1.332-.983 1.722-.021.276-.165 2.635.453 2.542 1.36-.121 2.936-1.256 4.091-1.941.258-.153 3.502-2.415 3.565-2.336zm-7.912-.003c-.06.393-.113.786-.152 1.182.751-.901 1.171-2.079 1.516-3.182.354-1.126 1.088-3.422.486-4.55-.12-.324-.403.432-.426.483-.219.565-.383 1.156-.529 1.743-.358 1.427-.671 2.87-.895 4.324zM77.15 45.319c.4-.686 6.661-6.21 5.147-7.1-1.01-.593-3.228.387-4.098.883-.846.481-1.567 1.135-2.093 1.956-.193.303-.356.618-.495.95-.114.272-.159.767-.379.978-.107.104-.052-.534-.048-.554.058-.341.182-.672.339-.979.36-.731.995-1.331 1.634-1.823 1.257-.968 3.078-1.679 4.685-1.601 2 .147-.959 3.454-1.478 4.039-.568.642-1.16 1.264-1.763 1.873-.417.423-1.141.895-1.451 1.378zm-.07 3.425c-.166.239-.989-.331-.824-.573.174-.23.983.324.824.573z"/></g></svg>