<svg xmlns="http://www.w3.org/2000/svg" width="388.359" height="484.965" viewBox="0 0 388.359 484.965"><path opacity=".1" fill="#64594F" d="M388.359 79.201l-294.209-67.107-94.15 405.794 295.486 67.077z"/><path fill="#BCBAB4" d="M385.804 78.511l-288.632-66.938-8.369-11.573 289.814 67.241z"/><path fill="#D2CEC7" d="M385.804 78.512l-288.654-66.849-79.491 338.22 289.814 67.241z"/><path fill="#E6E2D9" d="M381.929 81.879l-1.16-5.403-379.584 325.076.701 7.388 289.814 67.239z"/><path fill="#FFF9EE" d="M373.832 106.373l-288.561-67.24-84.086 362.419 289.815 67.24z"/><path fill="#FFF5E6" d="M373.832 106.373l-288.561-67.24 205.729 429.659z"/><path fill="#CEAA87" d="M373.832 106.373l-288.561-67.24 6.936-29.898 288.562 67.241z"/><path fill="#806449" d="M85.275 39.129l288.559 67.229-.284 1.22-288.559-67.229z"/><path stroke="#E7E1D7" stroke-miterlimit="10" fill="none" d="M108.414 100.118l220.259 51.104M105.583 112.322l220.259 51.102M102.751 124.524l220.26 51.103M99.92 136.728l220.26 51.101M97.089 148.93l220.258 51.103M94.258 161.133l220.258 51.101M91.427 173.336l220.26 51.102M88.596 185.537l220.258 51.103M85.764 197.74l220.258 51.103M82.933 209.943l220.258 51.104M80.103 222.146l220.257 51.102M77.271 234.349l220.259 51.103M74.439 246.551l220.26 51.102M71.608 258.754l220.259 51.102M68.776 270.956l220.259 51.103M65.947 283.159l220.258 51.104M63.115 295.362l220.259 51.103M60.284 307.565l220.258 51.102M57.452 319.768l220.26 51.101M54.62 331.97l220.26 51.103M51.79 344.174l220.259 51.101M48.96 356.376l220.259 51.102"/><g fill="#3C5052"><path d="M109.583 123.596c-.231.039-.222-.281-.008-.281.403 0 .839-.257 1.171-.458.768-.472 1.362-1.227 1.858-1.963l.231.168c-.537.659-1.042 1.373-1.455 2.12-.34.617-.631 1.257-.898 1.908-.023.057-.375 1.175-.562.775-.288-.575 2.896-4.834 2.71-4.963l.156.113c-.781.973-1.916 2.287-3.203 2.581zM115.346 119.531c.338.366.123 1.543.049 1.952-.158.871-.523 1.687-1 2.429-.491.762-1.104 1.442-1.782 2.043-.495.439-1.291 1.254-1.98 1.362-.386.04.111-.358.197-.419.399-.285.861-.446 1.266-.718.737-.495 1.372-1.148 1.909-1.852.622-.811 1.11-1.773 1.304-2.782.061-.322.31-1.741.037-2.015zM135.977 128.625c.463-.226.324.197.008.32-.523.239-1.05.477-1.584.693-1.123.426-2.299.767-3.495.438-1.369-.38-2.539-.858-3.985-.998-.414-.04-2.137.052-2.355-.166-.188-.314.382-.658.564-.88.701-.854 1.267-1.822 1.806-2.782.506-.902.974-1.83 1.42-2.762.179-.375.361-.748.531-1.126.021-.047.524-1.06.553-.586.032.543-.711 1.473-.961 1.943-.583 1.097-1.181 2.185-1.825 3.247-.153.247-2.072 2.848-2.065 2.858l-.024-.06c2.168.025 4.03.237 6.038 1.091 1.887.803 3.743-.402 5.374-1.23zM143.071 130.191c.306-.04.23.297-.033.297-.461 0-.931.096-1.391.131-1.213.092-2.485.153-3.691-.047-.506-.084-1.002-.228-1.493-.375-.429-.113-.537.142-.938.391-.461.287-1.04.588-1.598.434l.01.002c-.639-.275-.34-1.27-.06-1.718.213-.41.608-.68 1.043-.807.077-.022.944-.211.867.098-.042.197-.385.107-.512.104-.483 0-.947.238-1.216.641-.506.759-.487 2.012.735 1.512l1.313-.894c.369-.12 1.177.232 1.562.327 1.826.448 3.587.294 5.402-.096zM154.509 132.838c.393-.081.245.276-.051.306-.535.052-1.065.163-1.594.258-1.279.229-2.557.51-3.842.703-.537.083-2.874.396-2.208-.837.13-.275 1.555-1.815 1.534-1.853l.063.123c-1.953.071-4.116-.151-5.832-1.165-.336-.199-.176-.511.131-.26.394.287.863.498 1.315.671 1.239.475 2.565.654 3.886.667.59.006.576-.073.176.378-.618.726-1.959 2.142-.17 2.169 2.238.037 4.428-.696 6.592-1.16zM153.982 132.666c.38 0 .043.275-.188.27-.506-.025-1.272.052-1.46.631-.437 1.349 1.636 1.964 2.57 2.164 1.268.27 2.529.235 3.788-.063.615-.146 1.215-.339 1.803-.571.269-.108 1.012-.609 1.298-.531.485.137-.579.496-.579.496-.584.207-1.172.393-1.77.556-1.195.326-2.415.415-3.647.434-1.15-.027-2.629-.425-3.345-1.403-.926-1.195.467-1.959 1.53-1.983zM177.708 138.244c.102.352-4.021 1.103-4.369 1.158-.856.136-1.9.353-2.601-.306-.492-.463-.749-1.306-.73-1.965-1.152.494-2.255 1.071-3.523 1.217-1.928.243-2.047-1.445-1.656-2.897-1.631.559-3.432 1.36-5.168 1.457-1.541.089 1.427-2.66 1.617-2.48.169.169-1.817 1.941-1.915 2.269.723.374 2.544-.441 3.245-.645.226-.066 2.271-.735 2.255-.76.281.562-.748 2.485.604 2.839 1.195.31 2.729-.43 3.807-.878.185-.079.76-.474.908-.325l.051.135c-.086-.052.134 1.22.2 1.372.38.875 1.139 1.061 2.018.977.46-.046 5.196-1.312 5.257-1.168zM197.301 142.773c.055.225-5.967.768-6.461.788-1.359.054-3.159.208-4.377-.522-.564-.338-.782-.941-.517-1.55.06-.145.666-1.382.939-1.099.173.179-1.226 1.461-.73 2.199.69 1.017 2.708.92 3.768.92 1.412-.003 2.82-.143 4.218-.326.264-.035 3.096-.651 3.16-.41zm-7.752-4.894c-.19-.022-1.49-.065-1.441-.352.041-.277.871.089 1.06.128.213.044 3.015.542 3.028.456-.052.29-2.386-.201-2.647-.232zM196.203 142.895c.042-.055.327-.412.443-.319.18.147-3.091 4.158-3.376 4.538-.992 1.318-2.363 2.861-2.771 4.49l-.055-.03c.457-.229.833-.96 1.136-1.347.675-.866 1.373-1.722 2.116-2.531 1.112-1.211 2.334-2.386 3.762-3.223.803-.471 3.095-1.568 3.985-.647.355.301-.801 1.189-.957 1.323-.389.333-.791.648-1.196.962.048-.037-.459.231-.308.067.229-.211 1.887.12 2.228.124.934.01 1.867-.048 2.793-.162.357-.044 4.435-1.002 4.514-.809.134.34-4.189.974-4.553 1.009-1.011.099-2.029.143-3.045.1-.246-.007-1.835.015-1.928-.17-.267-.4 4.319-2.527 1.363-2.605-2.744-.073-5.093 2.675-6.779 4.514-.989 1.094-1.85 2.445-2.952 3.42-.535.458.163-1.005.205-1.08 1.514-2.666 3.477-5.22 5.375-7.624zM214.202 146.711c.043.123-5.776 2.182-6.268 2.392-.67.287-1.336.586-2 .885-.754.339-.832.782-1.337 1.401-.415.512-1.011.9-1.696.76-.393-.09-.517-.339-.209-.623.832-.814 2.395-.993 2.829-2.06.496-1.217.795-2.569 1.463-3.708.069-.12.873-.795.735-.459-.154.343-.537.609-.719.967-.628 1.175-.971 2.488-1.549 3.688.855-.355 8.629-3.552 8.751-3.243zm-10.052 4.998c.43-.363.714-.86.967-1.354-.782.356-1.653.702-2.32 1.255-.209.178-.226.336.062.422.462.133.933-.015 1.291-.323zM222.804 148.701c.3-.102.343.226.062.291-.335.048-.674.19-.997.287-1.019.305-2.066.594-3.119.749-.86.126-2.291.184-2.445-.973-.066-.496.194-.818.303-1.25l.232.177c-.109-.085-.636.396-.755.472-.723.479-1.608.896-2.487.928-.741.028-1.722-.278-1.453-1.203.153-.426.745-1.553 1.265-1.637.423-.061-.555.887-.611.953-.635.727-.751 1.563.406 1.744.903.146 1.801-.256 2.553-.713.199-.126.808-.843 1.025-.625-.035-.035-.232.715-.236.751-.123.972.707 1.286 1.525 1.297 1.627.022 3.249-.643 4.732-1.248zM238.88 152.438c.105.299-3.784 1.061-4.092 1.113-.837.142-1.955.429-2.702-.12-.62-.437-.925-1.375-.904-2.107-1.119.539-2.275 1.069-3.523 1.218-1.925.243-2.052-1.447-1.656-2.898-1.64.561-3.425 1.343-5.167 1.458-1.535.087 1.412-2.662 1.617-2.481.177.183-1.822 1.929-1.915 2.27.735.368 2.532-.438 3.244-.646.248-.072 2.229-.786 2.255-.761.198.596-.616 2.173.421 2.764.963.549 2.76-.303 3.673-.672.372-.15.876-.538 1.238-.447-.022-.006-.012.101.039.126-.088-.053.133 1.22.199 1.373.381.876 1.139 1.06 2.02.977.443-.045 5.215-1.273 5.253-1.167zM257.012 156.649c.066.249-5.426 1.062-5.913 1.125-.239.03-1.49.345-1.57-.074-.115-.873 1.014-2.333 1.422-3.038-.763.624-1.558 1.213-2.407 1.716-.611.362-1.62 1.019-2.371.734-1.418-.529 1.733-2.768 1.92-2.521.064.1-3.221 2.458-1.495 2.37 1.615-.083 3.332-1.646 4.53-2.601 1.071-1.648 2.041-3.35 3.288-4.88.335-.417.763-1.078 1.286-1.277.695-.242.137 1.217.024 1.413-1.65 2.95-5.191 4.434-6.064 7.87-.265.589 2.323.031 2.604-.018.374-.065 4.685-1.066 4.746-.819zm-4.174-4.622c-.468.675-.93 1.354-1.368 2.048.959-.81 1.883-1.655 2.722-2.59.6-.668 1.831-1.913 1.699-2.905-.044-.532-.586.183-.711.331-.864.965-1.596 2.061-2.342 3.116zM263.703 158.18c.305-.044.231.297-.033.297-.461 0-.931.096-1.391.131-1.213.092-2.485.154-3.69-.047-.506-.084-1.001-.228-1.492-.375-.431-.114-.536.143-.938.391-.462.285-1.042.591-1.599.433-.578-.243-.343-1.099-.133-1.559.203-.429 1.381-1.519 1.953-.978.215.209-.2.228-.302.221-.495-.011-.94.109-1.278.496-.533.594-.793 2.008.422 1.717.615-.15.995-.79 1.519-.959.37-.12 1.177.231 1.562.327 1.824.449 3.586.293 5.4-.095zM271.716 160.05c.153.398-5.768.959-6.255.977-.895.032-1.843.093-2.722-.106-.745-.186.374-2.302.527-2.604-.135.07-.259.064-.373-.018.001.005.682-.554.744-.668.346-.622.719-1.228 1.095-1.832.706-1.133 1.521-2.211 2.415-3.202.295-.327 2.031-2.1 1.58-.554-.469 1.378-1.441 2.656-2.383 3.742-.5.577-1.03 1.129-1.622 1.612-.374.304-1.167.601-1.382 1.001-.225.434-1.314 2.354-.321 2.476 1.551.191 3.198-.009 4.741-.192.274-.034 3.923-.757 3.956-.632zm-7.445-3.227c-.216.333-.427.668-.623 1.013 1.063-.532 1.934-1.402 2.719-2.276.771-.858 2.425-2.686 2.305-3.94.021-.343-.558.232-.597.268-.438.42-.832.895-1.206 1.37-.909 1.155-1.795 2.332-2.598 3.565zM278.465 161.604c.309-.034.232.309-.033.297-.464.018-.928.097-1.391.132-1.214.092-2.485.153-3.691-.048-.507-.084-1-.231-1.492-.374-.43-.114-.536.142-.938.391-.461.286-1.04.588-1.598.434l.01.002c-.64-.275-.341-1.27-.06-1.718.216-.409.606-.681 1.043-.807.084-.024.937-.214.868.099-.049.196-.383.104-.513.103-.481-.007-.95.241-1.217.641-.499.75-.487 2.029.735 1.51.493-.177.869-.749 1.313-.893.37-.12 1.177.231 1.562.327 1.801.446 3.612.33 5.402-.096zM289.901 164.251c.469-.104.111.283-.178.319-.587.064-1.168.19-1.748.294-1.269.229-2.536.515-3.812.69-.788.108-2.468.273-1.905-.984.144-.247 1.494-1.733 1.473-1.762l.073.143c-1.953.07-4.115-.15-5.832-1.165-.33-.195-.191-.5.132-.261.37.3.875.504 1.314.672 1.24.474 2.562.653 3.885.667.591.006.576-.071.177.379-.626.721-1.954 2.145-.17 2.169 2.25.032 4.412-.733 6.591-1.161zM107.696 152.439c.176.003.392.173.115.254-.222.074-.493-.079-.674-.178-.77-.406-1.413-1.086-2.051-1.663-.074-.067-1.646-1.401-1.688-1.233-.279.086.367.43.508.42.481-.038.962-.227 1.395-.43 1.292-.606 3.247-1.691 3.445-3.285.166-1.334-.997-1.238-1.864-.823-.454.217-.89.484-1.303.772-.227.158-.536.515-.827.555-.405.055.863-.845.968-.91.68-.418 1.706-1.04 2.54-.849 1.915.682-.654 3.272-1.392 3.843-.679.532-1.437.963-2.275 1.184-.324.099-1.163.294-1.321-.182-.086-.253.024-.49.298-.398 1.381.673 2.488 2.802 4.126 2.923zM111.776 144.423c.337.366.123 1.544.049 1.952-.158.871-.522 1.688-1.001 2.428-.493.762-1.104 1.441-1.781 2.043-.479.425-1.306 1.279-1.981 1.361-.385.04.113-.358.198-.419.399-.285.862-.445 1.266-.718.737-.499 1.371-1.146 1.91-1.851.622-.812 1.108-1.773 1.304-2.783.06-.32.31-1.74.036-2.013zM131.56 153.165c.268.189-.798.471-.853.48-.705.131-1.434.154-2.149.153-.81-.001-1.618-.051-2.427-.061-.382-.005-.764-.007-1.146.005-.009.333-.027.646-.188.948-.617 1.153-3.067 1.456-3.823.278-.708-1.086 3.298-1.31 3.771-1.333-.075-1.485-.875-2.937-1.442-4.279-.598-1.477-1.6-3.867.969-3.742 1.301.102 3.289.493 4.158 1.583 1.086 1.362-1.798 3.237-1.937 3.013-.036-.063 1.664-1.428 1.813-1.682.639-1.079-.597-1.799-1.444-2.128-1.015-.395-2.331-.851-3.427-.633-1.277.251-.702 1.868-.401 2.678.39 1.052.919 2.046 1.34 3.085.181.433.352.878.468 1.334.063.255.112.505.134.767.331-.013.661-.021.992-.024 1.075-.008 2.148.059 3.222-.013.457-.03.914-.083 1.36-.185.188-.045.81-.366 1.01-.244zm-7.161 1.685c.273-.294.367-.713.35-1.104-.855.03-3.109-.04-3.653.867-.312.555 1.062.822 1.354.851.693.066 1.464-.078 1.949-.614zM141.26 155.49c.057.261-6.313.787-6.826.801-1.292.036-3.215.189-4.268-.719-.529-.469-.412-1.116-.117-1.675.047-.082.882-1.167.83-.677-.023.22-.488.568-.611.747-.34.495-.469 1.133.055 1.562 1.001.788 2.664.714 3.865.695.63-.01 7.048-.824 7.072-.734zm-7.752-4.894c-.194-.023-1.485-.062-1.441-.352.041-.276.87.09 1.059.129.213.044 3.02.532 3.029.455-.047.287-2.389-.202-2.647-.232zM148.487 157.195c.077.386-3.311.42-3.573.416-.888-.014-1.769-.082-2.646-.22-.487-.077-.971-.175-1.454-.278-.384.573-.449.614-.173 1.251.125.295.64 1.294.218 1.569-.493.3-1.055-.825-1.118-1.137-.052-.299.15-.61.287-.857.185-.331.053-.477-.12-.803-.01-.02-.181-.372-.181-.307l-.007-.059.115-.062c.582.27.78.318 1.181-.19.501-.646 1.196-1.269 1.609-1.972-.201.101-2.214 1.275-2.349.947-.082-.208 1.479-.76 1.609-.823.707-.342 1.188-.65 1.705-1.242.25-.286 1.747-2.346 2.198-2.15.65.163-1.717 2.313-1.911 2.457-.59.438-1.087.752-1.549 1.33-.51.63-1.007 1.277-1.453 1.954 1.289.296 2.605.448 3.928.443.32 0 3.649-.399 3.684-.267zm-8.316.174l.094.182.342-.485-.681-.187.245.49zm.402 1.313c-.089-.245-.187-.484-.292-.723-.322.643-.42.978.119 1.566.624.695.275-.557.173-.843zm4.24-6.437c-.516.532-1.008 1.085-1.499 1.641.886-.563 2.166-1.407 2.436-2.484-.359.166-.666.576-.937.843zM157.524 159.281c.365-.199.201.237-.064.341-.562.223-1.104.573-1.562.963-.111.095-1.029 1.058-.604 1.005.572.027 1.242-.33 1.77-.523.608-.278.678.052 1.206.485 1.036.849 2.301 1.578 3.685 1.271 1.342-.272 2.547-.87 3.724-1.547.099-.06.348-.055.266.138-.066.144-.329.227-.452.286-.553.258-1.101.514-1.676.722-2.347.85-4.629.613-6.372-1.323l.083.02c-.29.095-2.664.89-2.471.332.4-.964 1.575-1.704 2.467-2.17zM174.639 163.24c.224.46-4.845 1.41-5.245 1.428-.797.036-2.423-.062-2.805-.953-.187-.499 1.228-1.035 1.536-1.177-1.17.266-2.365.512-3.505.892-.262.075-.85.49-1.058.213-.24-.26 2.906-4.221 3.238-4.654.292-.381 3.509-4.753 3.8-4.529.15.12-3.345 4.197-3.676 4.61-1.167 1.46-2.32 2.958-3.229 4.594.562-.259 6-1.827 5.999-1.83l.103.28c.047.221-4.677 1.061-2.472 2.097 1.155.567 2.624.36 3.829.087.31-.069 3.41-1.215 3.485-1.058zM184.368 165.492c.055.225-5.967.768-6.461.788-1.36.055-3.158.207-4.377-.522-.57-.341-.775-.938-.519-1.55.062-.144.667-1.381.94-1.099.169.175-1.215 1.464-.731 2.199.709 1.014 2.695.919 3.77.919 1.411 0 2.82-.14 4.217-.326.266-.034 3.098-.651 3.161-.409zm-7.752-4.894c-.193-.023-1.487-.063-1.442-.352.041-.277.871.089 1.061.128.214.044 3.019.53 3.027.456-.047.286-2.387-.201-2.646-.232zM200.118 169.163c.103.323-3.778 1.059-4.092 1.113-.829.142-1.964.435-2.701-.119-.611-.426-.946-1.384-.904-2.107-1.142.512-2.263 1.067-3.524 1.217-1.927.241-2.049-1.443-1.657-2.897-1.631.559-3.43 1.359-5.166 1.457-1.527.113 1.404-2.675 1.617-2.48.194.208-1.842 1.901-1.915 2.269.707.379 2.555-.444 3.243-.645.227-.066 2.273-.734 2.256-.761.281.562-.746 2.479.605 2.84 1.192.312 2.731-.432 3.807-.879.184-.079.76-.472.907-.325.041.041-.044.096.051.134-.069-.046.13 1.213.2 1.373.382.875 1.139 1.061 2.019.977.445-.044 5.216-1.272 5.254-1.167zM199.287 168.896c.303.005.157.312-.093.277-.483-.081-1.186.025-1.479.463-.832 1.235 1.421 2.054 2.227 2.262 1.242.306 2.489.322 3.742.07.354-.077 3.437-1.231 3.509-1.102.166.298-2.418.977-2.677 1.041-1.209.296-2.529.459-3.775.355-1.068-.09-2.579-.565-3.119-1.59-.634-1.186.702-1.754 1.665-1.776zM214.487 172.508c.077.386-3.311.42-3.573.416-.888-.014-1.769-.082-2.646-.22-.487-.077-.972-.175-1.454-.278-.384.573-.448.615-.173 1.252.129.301.637 1.287.218 1.569-.497.292-1.056-.817-1.117-1.138-.056-.298.15-.611.286-.856.187-.328.055-.48-.12-.803-.01-.019-.181-.371-.181-.308l-.007-.059.117-.061c.578.269.779.319 1.179-.191.513-.656 1.159-1.274 1.61-1.972-.201.104-2.212 1.275-2.35.948-.081-.21 1.477-.76 1.609-.824.707-.342 1.188-.649 1.706-1.241.25-.286 1.746-2.347 2.197-2.15.65.163-1.717 2.312-1.91 2.456-.592.437-1.085.755-1.55 1.329-.511.631-.999 1.281-1.453 1.954 1.285.302 2.608.448 3.928.444.319-.001 3.649-.398 3.684-.267zm-8.316.175l.094.181.343-.485c-.229-.057-.456-.117-.682-.186l.245.49zm.402 1.312c-.088-.245-.186-.485-.291-.724-.342.638-.404.982.118 1.567.622.694.281-.557.173-.843zm4.24-6.437c-.515.533-1.01 1.085-1.499 1.642.886-.563 2.167-1.409 2.436-2.485-.36.17-.661.574-.937.843zM220.254 173.835c.089.248-2.318.895-2.565.981-1.345.469-2.671.968-3.979 1.529l-1.724.766c-.754.338-.83.783-1.336 1.4-.418.516-1.008.894-1.696.761-.395-.09-.515-.34-.208-.624.833-.815 2.393-.993 2.828-2.06.498-1.218.798-2.564 1.462-3.708.071-.122.873-.794.736-.459-.146.34-.539.616-.719.968-.631 1.174-.966 2.49-1.55 3.688.853-.351 8.635-3.544 8.751-3.242zm-10.052 4.998c.427-.363.72-.86.967-1.354-.787.357-1.643.708-2.32 1.254-.212.176-.223.339.062.422.462.134.933-.016 1.291-.322zM96.006 174.033c-.28-.291.047-.366.255-.123.249.294.471.607.74.886.665.69 1.583 1.454 2.592 1.464 1.071.011 1.744-1.166 1.782-2.125.022-1.086-1.172-.988-1.918-1.018l.005.021-.027-.248c1.2-.088 4.099-.728 3.436-2.561-.299-.78-1.664-.146-2.168.072-.371.162-.731.359-1.082.56-.044.025-.975.55-.736.171.275-.472 1.485-.817 1.957-.994.737-.281 2.225-.7 2.207.544-.025 1.777-2.31 2.113-3.613 2.385l-.011-.134c-.012-.143 1.558.141 1.737.271.851.606.236 1.953-.302 2.569-1.43 1.637-3.935-.515-4.854-1.74zM106.243 168.858c.323.42.13 1.498.048 1.952-.158.871-.523 1.686-1.001 2.428-.491.763-1.105 1.44-1.781 2.043-.476.425-1.307 1.28-1.98 1.362-.386.04.111-.358.197-.419.399-.286.861-.446 1.266-.719.736-.496 1.373-1.146 1.909-1.851.624-.812 1.109-1.773 1.305-2.783.061-.319.309-1.741.037-2.013zM129.215 178.427c.103.352-7.1 1.736-7.142 1.569l-.027-.178c-.01.041.967-.166.975-.168.525-.15 1.282-.367 1.562-.891.685-1.244-2.366-.792-2.586-1.159.05.083 3.677-2.595 3.999-2.862.373-.311 2.034-1.495 1.492-2.071-.41-.224-.945-.225-1.405-.183-2.113.214-4.185 1.354-5.997 2.39-1.007.575-1.994 1.186-2.957 1.831-.38.254-1.685.854-1.797 1.305l.009-.038c-.093-.004-.178.039-.066-.095l-.041.001c.164.055.921-.962.97-1.02.692-.825 1.352-1.679 2.007-2.533.276-.36 3.274-4.568 3.486-4.409.256.188-5.193 6.882-5.737 7.447 2.845-1.98 6.202-4.26 9.644-4.999.526-.113 1.991-.346 2.25.354.222.648-.847 1.464-1.238 1.802-1.353 1.158-2.877 2.213-4.409 3.118.671-.023 1.392-.009 2.025.233 1.348.488-.158 1.553-.803 1.771.406-.066 5.745-1.347 5.786-1.215zM136.911 180.212c.153.375-5.768.96-6.255.977-.895.031-1.842.093-2.721-.107-.746-.187.371-2.3.526-2.603-.135.069-.259.063-.373-.019.001.004.682-.555.745-.668.344-.623.718-1.228 1.094-1.832.706-1.133 1.521-2.211 2.416-3.201.292-.322 2.04-2.1 1.58-.555-.429 1.372-1.455 2.676-2.382 3.742-.501.576-1.03 1.129-1.623 1.612-.37.301-1.174.603-1.381 1.001-.229.433-1.314 2.354-.321 2.475 1.55.191 3.198-.008 4.741-.192.27-.031 3.926-.745 3.954-.63zm-7.444-3.227c-.215.333-.425.669-.623 1.013 1.064-.52 1.939-1.406 2.72-2.276.783-.875 2.402-2.667 2.305-3.939.011-.343-.55.225-.598.267-.435.422-.83.895-1.206 1.37-.91 1.155-1.795 2.332-2.598 3.565zM136.073 180.023c.366-.2.199.236-.063.341-.563.223-1.102.574-1.562.963-.113.096-1.032 1.057-.604 1.005.56.036 1.253-.328 1.768-.523.618-.265.663.04 1.208.485 1.039.849 2.297 1.577 3.684 1.271 1.337-.271 2.558-.86 3.725-1.547.097-.061.352-.053.264.139-.064.144-.329.228-.451.285-.551.261-1.102.515-1.675.723-2.349.851-4.628.61-6.373-1.324l.084.02c-.289.094-2.669.884-2.471.333.383-.963 1.581-1.709 2.466-2.171zM162.001 186.067c.205.421-3.818 1.015-4.131 1.039-1.308.103-2.638-.076-3.931.042l.014-.225c-.018.108.514.028.545.021.704-.137 1.623-.43 2.074-1.036.276-.372.224-1.18-.376-1.086-.767.121-1.512.588-2.184.956-.206.113-2.097 1.278-1.832.66.577-1.41 1.696-2.744 2.598-3.958 1.069-1.434 2.153-3.018 3.492-4.217.12-.11 1.008-.92 1.031-.211.025.767-.673 1.632-1.121 2.211-.973 1.246-2.099 2.38-3.346 3.354-.619.487-1.145.78-1.59 1.44-.321.477-.656.95-.928 1.458 1.286-.461 2.377-1.423 3.716-1.758.528-.132.93.235.812.824-.176.878-1.334 1.175-2.042 1.425 1.381.031 2.761-.022 4.126-.242.231-.035 2.994-.85 3.073-.697zm-4.736-6.508c-1.101 1.375-2.137 2.805-3.149 4.246 1.55-.956 2.959-2.278 4.053-3.73.139-.185 1.514-2.057.889-2.203-.548-.115-1.511 1.341-1.793 1.687zM169.75 187.831c.153.397-5.767.96-6.255.977-.895.031-1.842.093-2.721-.107-.746-.187.372-2.3.526-2.604-.135.07-.259.064-.373-.018.001.004.682-.555.745-.668.345-.623.721-1.226 1.094-1.832.706-1.133 1.521-2.211 2.416-3.202.292-.322 2.04-2.1 1.58-.554-.438 1.374-1.452 2.671-2.383 3.742-.501.576-1.03 1.128-1.622 1.612-.365.298-1.183.604-1.381 1.001-.229.433-1.314 2.355-.321 2.476 1.551.191 3.197-.009 4.741-.192.27-.032 3.926-.746 3.954-.631zm-7.444-3.227c-.215.333-.426.668-.623 1.013 1.064-.532 1.935-1.401 2.72-2.276.771-.861 2.422-2.684 2.304-3.94.016-.342-.553.229-.597.268-.436.423-.83.895-1.206 1.37-.913 1.152-1.796 2.333-2.598 3.565zM168.911 187.642c.369-.202.192.234-.063.342-.563.211-1.108.576-1.562.963-.115.097-1.034 1.049-.604 1.005.562.036 1.25-.331 1.768-.523.609-.278.679.053 1.208.485 1.037.849 2.298 1.577 3.684 1.271 1.349-.274 2.536-.883 3.725-1.547.096-.062.353-.053.264.138-.064.145-.329.227-.451.286-.551.261-1.102.515-1.676.722-2.35.851-4.626.61-6.372-1.324l.084.02c-.288.093-2.669.884-2.471.333.388-.975 1.582-1.691 2.466-2.171zM194.841 193.687c.201.437-3.816 1.014-4.132 1.039-1.307.102-2.639-.078-3.931.042l.014-.225c-.03.269 2.335-.632 2.619-1.015.276-.372.225-1.18-.375-1.086-.766.12-1.513.587-2.184.956-.206.113-2.096 1.277-1.832.66.578-1.412 1.698-2.74 2.597-3.958 1.069-1.434 2.155-3.019 3.493-4.217.12-.11 1.008-.92 1.031-.211.025.769-.675 1.629-1.121 2.211-.973 1.246-2.099 2.38-3.346 3.354-.623.481-1.146.781-1.59 1.44-.32.474-.672.946-.928 1.458 1.282-.468 2.377-1.423 3.715-1.758.532-.13.925.231.812.824-.175.877-1.334 1.175-2.042 1.425 1.381.031 2.761-.021 4.126-.242.236-.037 2.987-.859 3.074-.697zm-4.737-6.509c-1.102 1.375-2.137 2.804-3.149 4.246 1.55-.956 2.958-2.278 4.052-3.73.139-.185 1.516-2.057.89-2.203-.548-.115-1.511 1.341-1.793 1.687zM202.588 195.45c.153.388-5.769.959-6.255.977-.895.03-1.842.092-2.721-.107-.745-.155.381-2.319.526-2.603-.134.069-.259.063-.373-.018 0 .002.682-.554.745-.668.345-.623.722-1.226 1.094-1.832.706-1.133 1.521-2.21 2.416-3.202.295-.327 2.03-2.1 1.579-.554-.438 1.373-1.451 2.672-2.383 3.741-.501.576-1.029 1.13-1.622 1.612-.365.296-1.183.604-1.381 1.001-.232.44-1.312 2.345-.321 2.476 1.55.191 3.198-.009 4.741-.193.27-.032 3.929-.742 3.955-.63zm-7.444-3.226c-.216.333-.426.668-.623 1.012 1.065-.52 1.938-1.406 2.72-2.275.77-.859 2.425-2.686 2.304-3.94.016-.343-.553.227-.597.267-.434.425-.829.895-1.206 1.37-.911 1.154-1.799 2.331-2.598 3.566zM201.749 195.261c.37-.202.191.234-.063.342-.563.211-1.105.577-1.562.962-.114.097-1.034 1.05-.604 1.006.566.027 1.247-.327 1.768-.524.618-.265.664.041 1.208.486 1.041.852 2.295 1.571 3.684 1.271 1.337-.275 2.557-.861 3.725-1.548.096-.06.354-.053.264.139-.064.144-.329.227-.451.286-.551.261-1.102.514-1.676.722-2.359.854-4.615.604-6.372-1.323l.084.02c-.288.091-2.67.884-2.471.332.387-.975 1.582-1.691 2.466-2.171zM219.061 199.637c.042-.054.328-.411.443-.319.182.149-3.09 4.158-3.376 4.538-1.037 1.383-2.221 2.84-2.771 4.489l-.054-.029c.461-.276.812-.934 1.135-1.347.678-.865 1.372-1.722 2.116-2.531 1.116-1.213 2.335-2.382 3.763-3.223.803-.473 3.095-1.567 3.984-.647.359.293-.805 1.193-.956 1.323-.39.333-.799.639-1.196.962.032-.025-.449.209-.308.068.207-.207 1.903.12 2.227.123.935.009 1.867-.049 2.794-.163.357-.044 4.435-1.001 4.514-.808.132.357-4.187.973-4.553 1.009-1.011.099-2.03.143-3.046.1-.362-.011-1.687.07-1.927-.17-.267-.4 4.319-2.527 1.363-2.605-2.736-.072-5.105 2.671-6.78 4.515-.992 1.092-1.849 2.444-2.951 3.419-.535.458.162-1.004.205-1.08 1.516-2.665 3.475-5.219 5.374-7.624zM230.474 201.851c.391.014.033.276-.189.271-.505-.024-1.273.052-1.46.631-.435 1.35 1.635 1.962 2.57 2.163 1.267.272 2.529.235 3.787-.062.693-.164 1.373-.386 2.029-.663.073-.031 1.341-.676 1.171-.251-.1.25-.86.373-1.081.45-.601.215-1.226.395-1.849.531-1.185.26-2.492.422-3.705.278-.995-.118-2.764-.676-3.028-1.817-.307-1.139.848-1.491 1.755-1.531zM237.35 203.879c.043-.054.327-.41.443-.318.182.149-3.09 4.157-3.376 4.538-1.037 1.383-2.221 2.84-2.771 4.489l-.055-.029c.456-.228.835-.96 1.136-1.347.678-.865 1.373-1.721 2.116-2.531 1.112-1.213 2.335-2.384 3.763-3.223.802-.472 3.095-1.567 3.984-.647.359.293-.806 1.192-.956 1.322-.389.335-.794.645-1.196.963.051-.04-.46.232-.309.068.229-.213 1.886.12 2.228.123.934.009 1.867-.048 2.794-.162.351-.043 4.443-.989 4.513-.809.134.34-4.189.973-4.553 1.009-1.011.099-2.029.144-3.045.101-.363-.011-1.685.072-1.928-.171-.243-.485 4.535-2.758 1.092-2.602-2.715.123-5.033 2.869-6.707 4.732-.922 1.025-1.723 2.287-2.753 3.199-.514.475.166-1.01.206-1.08 1.515-2.671 3.485-5.207 5.374-7.625zM259.281 208.592c.059.238-6.313.787-6.826.801-1.292.036-3.215.189-4.268-.719-.529-.466-.411-1.118-.118-1.674.047-.081.883-1.168.831-.678-.018.216-.491.572-.611.748-.344.487-.467 1.14.055 1.561 1.001.788 2.663.714 3.865.695.631-.011 7.049-.824 7.072-.734zm-7.751-4.894c-.193-.023-1.488-.062-1.443-.352.048-.278.866.088 1.061.128.213.044 3.019.533 3.028.455-.052.293-2.384-.2-2.646-.231zM266.508 210.297c.077.386-3.312.42-3.573.416-.889-.014-1.77-.081-2.647-.22-.487-.077-.972-.175-1.454-.278-.382.578-.445.609-.173 1.251.13.3.638 1.288.219 1.57-.501.288-1.052-.815-1.117-1.138-.052-.3.147-.609.287-.856.184-.336.049-.472-.12-.804-.01-.018-.182-.372-.182-.307l-.007-.059.116-.062c.581.269.779.319 1.181-.19.511-.659 1.157-1.274 1.609-1.973-.19.101-2.231 1.266-2.349.949-.085-.207 1.479-.762 1.608-.824.707-.34 1.189-.65 1.706-1.242.249-.285 1.748-2.348 2.198-2.15.636.134-1.723 2.316-1.912 2.456-.592.438-1.081.758-1.55 1.33-.511.632-.995 1.283-1.452 1.954 1.286.302 2.608.448 3.929.444.319-.001 3.648-.399 3.683-.267zm-8.317.174l.094.182c.11-.164.22-.33.343-.485-.228-.057-.456-.117-.681-.187l.244.49zm.402 1.312c-.086-.245-.185-.485-.29-.723-.342.638-.404.983.118 1.567.621.693.281-.558.172-.844zm4.24-6.437c-.514.535-1.01 1.085-1.498 1.643.887-.568 2.165-1.407 2.435-2.485-.361.17-.66.575-.937.842zM273.229 211.828c.305-.045.231.297-.034.297-.461 0-.931.096-1.391.131-1.212.093-2.485.154-3.69-.047-.505-.084-1.001-.227-1.491-.375-.431-.114-.537.142-.939.392-.46.285-1.043.591-1.599.433-.576-.242-.345-1.1-.132-1.558.194-.436 1.385-1.516 1.952-.979.215.209-.198.228-.301.221-.495-.011-.941.109-1.279.496-.527.596-.795 2.009.422 1.717.617-.148.994-.789 1.519-.958.376-.121 1.176.231 1.563.326 1.828.449 3.579.285 5.4-.096z"/></g><g stroke="#D5CEB2" stroke-miterlimit="10" fill="none"><path d="M1.65 355.561M355.362 81.478M283.285 416.813M356.536 83.984M357.997 86.513M286.053 421.116"/></g><path stroke="#EE4866" stroke-miterlimit="10" d="M356.484 85.397" fill="none"/><path fill="#FFF9EE" d="M370.146 101.06l-288.632-66.938 7.289-34.122 289.814 67.241z"/><path fill="#E6E2D9" d="M370.138 101.089l-288.624-66.967 3.491 6.355 289.813 67.242z"/><path fill="#3C5052" d="M203.379 338.264c1.56-2.966 2.733-6.13 3.542-9.378.397-1.626.688-3.278.846-4.944.083-.832.133-1.668.134-2.504.02-.836-.031-1.671-.089-2.504l-.141-1.246c-.061-.412-.145-.822-.215-1.233-.061-.414-.188-.813-.283-1.22-.093-.407-.211-.807-.353-1.2-.239-.801-.584-1.562-.912-2.328-.387-.739-.755-1.488-1.228-2.178-.422-.721-.971-1.354-1.474-2.017-.566-.612-1.1-1.256-1.73-1.804-.59-.591-1.248-1.104-1.904-1.62-.649-.523-1.372-.948-2.056-1.428l-.048-.034v-.053l.003-1.217.1.099h-.11800000000000001l.017-.099-.005-.065-.017-.084-.031-.168-.072-.128-.076-.121-.238-.188-.293-.088-.079-.023-.007-.062-.001-.009.103.085-.076.001.088-.082v.007l-.009.06-.078.022-.286.082-.238.18-.157.252-.058.293-.001-.014.003.039.004.045-.031.031v.001l.027-.066-.005 1.217v.046l-.041.03c-.678.493-1.387.946-2.04 1.472-.643.538-1.316 1.043-1.901 1.645-.299.294-.614.572-.899.879l-.836.94c-.29.304-.53.648-.784.981-.243.342-.525.655-.735 1.02l-.672 1.063c-.212.361-.394.74-.592 1.109-.207.366-.367.754-.528 1.141-.16.388-.342.767-.462 1.17-.129.398-.274.793-.392 1.195l-.31 1.22c-.165.822-.326 1.647-.399 2.484-.055.417-.087.835-.099 1.255-.018.42-.05.839-.035 1.259-.007.841.045 1.68.118 2.517.088.836.204 1.668.355 2.494.158.825.339 1.646.554 2.458.432 1.623.97 3.219 1.618 4.77.648 1.553 1.371 3.062 2.236 4.517l.043.073-.093.028-.795.241c-.25.119-.509.221-.75.354-.476.283-.926.612-1.308 1.015-.386.396-.731.837-1.006 1.319-.293.471-.522.982-.716 1.503-.388 1.043-.614 2.145-.716 3.255-.051.555-.067 1.112-.059 1.67.028.548.006 1.143.246 1.614.221.493.571.943 1.022 1.228.109.077.239.111.356.17l.381.067c.271-.006.551-.028.79-.12.516-.157.835-.635.966-1.156.109-.529.186-1.101.281-1.648.102-.546.153-1.121.31-1.66.198-.55.484-1.061.835-1.506.172-.228.35-.45.56-.646.192-.213.409-.399.642-.568.444-.365.984-.604 1.556-.741l.061-.015.049.061.671.817c.214.281.498.493.743.744.237.265.56.414.837.623.137.112.303.165.462.231l.479.196.086.035v.077l-.001.686v.21l-.187-.115c-.184-.114-.355-.251-.548-.348-.196-.086-.377-.216-.587-.266-.205-.059-.403-.153-.618-.157-.218-.02-.41-.064-.636-.036-.224.007-.442.025-.644.074-.21.026-.405.116-.597.192l-.263.162-.216.214-.153.259-.084.291-.022.299.041.322c.05.185.136.372.273.521.131.154.311.261.494.355.196.075.393.147.608.174.207.053.426.048.642.063.193.02.437-.021.645-.042.405-.081.812-.245 1.188-.455l.117-.065.061.141.156.362.262.295.34.201.385.088.125.028-.012.106-.001.009-.121-.136h.083l-.126.137-.001-.007-.013-.108.126-.028.385-.089.34-.2.261-.296.156-.363.061-.142.119.066c.377.209.777.374 1.196.455.209.021.422.059.632.04.22-.016.449-.012.648-.064.211-.025.407-.098.604-.174.184-.094.361-.201.492-.354.137-.147.224-.332.273-.528.044-.207.047-.391.016-.619l-.084-.281-.152-.258-.215-.212-.263-.161c-.192-.076-.384-.166-.599-.191-.207-.05-.421-.067-.638-.074-.217-.028-.411.013-.643.035-.229.005-.414.099-.617.155-.203.047-.389.177-.584.263-.192.097-.364.232-.549.346l-.185.114.001-.207.003-.687.001-.075.083-.034.479-.194.24-.096.224-.133c.278-.209.601-.358.839-.622.246-.25.53-.462.745-.743l.674-.816.043-.052.053.012c.566.138 1.104.376 1.545.741.231.169.447.354.639.567.208.195.385.418.556.646.35.447.63.95.825 1.49.162.569.203 1.104.307 1.665.093.549.168 1.119.276 1.651.133.537.457 1.021.988 1.188.249.097.54.117.796.125.137-.025.283-.029.41-.072.118-.06.247-.093.358-.171.462-.29.816-.746 1.042-1.246.248-.501.219-1.072.251-1.633.009-.558-.006-1.117-.057-1.675-.102-1.113-.326-2.219-.716-3.269-.193-.522-.423-1.037-.718-1.512-.276-.486-.624-.931-1.014-1.331-.385-.405-.839-.739-1.319-1.024-.244-.136-.506-.238-.758-.359l-.818-.248.005-.015zm.028-.002l.794.235c.254.12.518.222.765.356.485.284.944.617 1.336 1.023.394.4.747.846 1.028 1.333.301.477.534.993.733 1.519.398 1.054.632 2.164.741 3.284.055.56.073 1.123.067 1.688-.027.55.006 1.143-.249 1.673-.231.521-.592.993-1.08 1.306-.505.341-1.12.319-1.673.14-.576-.166-.952-.732-1.082-1.271-.12-.564-.193-1.11-.292-1.666-.103-.541-.159-1.131-.312-1.642-.189-.512-.464-1.001-.808-1.435-.168-.221-.342-.436-.546-.624-.187-.206-.396-.384-.62-.546-.43-.351-.94-.568-1.463-.693l.095-.039-.68.834c-.217.287-.508.51-.759.768-.242.271-.579.434-.868.65l-.232.141-.254.104-.51.208.084-.109.001.687-.184-.093c.191-.121.369-.262.572-.365.208-.094.392-.227.623-.285.222-.065.446-.164.665-.17.208-.022.453-.068.68-.04.227.005.453.022.679.076.227.029.445.126.66.214l.303.188.257.255.186.313.103.355c.031.211.032.473-.021.699-.058.232-.166.458-.329.636-.159.186-.366.31-.575.415-.218.086-.437.164-.669.193-.232.056-.449.051-.671.066-.231.02-.462-.021-.69-.044-.453-.089-.879-.265-1.275-.486l.18-.075-.186.433-.312.354-.405.239-.459.104.113-.136.001.007.021.167-.146-.03-.073.001-.139.023.018-.159.001-.009.113.135-.459-.104-.405-.239-.311-.353-.187-.433.178.074c-.398.221-.817.396-1.284.486-.229.021-.428.06-.677.042-.226-.016-.453-.012-.678-.067-.228-.028-.446-.106-.664-.192-.208-.105-.415-.229-.574-.415-.162-.177-.271-.399-.33-.644-.049-.215-.052-.456-.018-.697l.101-.345.185-.312.256-.254.303-.186c.214-.088.43-.185.661-.214.231-.054.454-.071.673-.077.216-.028.464.015.686.038.233.008.444.105.663.17.225.055.413.188.62.281.203.103.382.243.573.363l-.187.095.001-.686.086.112-.51-.207c-.169-.07-.345-.129-.487-.244-.291-.217-.629-.379-.872-.649-.252-.257-.545-.479-.763-.766l-.684-.834.11.046c-.519.127-1.026.345-1.452.696-.223.161-.431.339-.617.545-.203.188-.375.403-.542.624-.343.436-.61.918-.795 1.419-.158.542-.205 1.092-.309 1.648-.097.557-.167 1.101-.287 1.668-.135.555-.518 1.126-1.109 1.301-.288.104-.578.124-.864.129-.306-.021-.595-.113-.846-.271-.499-.319-.862-.798-1.098-1.326-.264-.558-.225-1.128-.255-1.69-.006-.564.012-1.13.066-1.691.109-1.124.342-2.239.741-3.298.2-.528.434-1.048.736-1.528.283-.49.638-.94 1.036-1.345.394-.41.857-.747 1.347-1.035.249-.136.516-.239.772-.36l.816-.243-.05.101c-.851-1.441-1.579-2.977-2.219-4.531-.643-1.559-1.176-3.161-1.602-4.791-.212-.815-.39-1.639-.545-2.467-.148-.83-.261-1.665-.346-2.503-.066-.84-.125-1.681-.121-2.524-.017-.421.013-.842.029-1.263.01-.422.041-.842.094-1.261.069-.84.227-1.67.389-2.497l.306-1.228c.116-.405.26-.803.389-1.204.119-.405.3-.788.459-1.179.161-.39.32-.78.526-1.149.198-.373.379-.755.591-1.12l.671-1.073c.21-.367.493-.685.736-1.029.254-.336.494-.685.785-.992l.837-.95c.286-.31.602-.591.901-.888.587-.608 1.262-1.119 1.907-1.663.656-.531 1.366-.99 2.046-1.489l-.041.076-.001-1.217v-.038l.027-.028.001-.001-.026.075-.003-.029-.001-.015.069-.361.193-.312.293-.221.353-.104-.085.082.001-.007.013-.093.075.011.075-.001.091-.025.013.11.001.009-.086-.085.362.106.297.232.107.169.087.171.032.167.017.084.008.104-.099-.099h.003l.099-.001.001.1.001 1.217-.048-.086c.689.479 1.42.905 2.077 1.431.665.517 1.33 1.032 1.929 1.628.638.553 1.171 1.208 1.74 1.829.505.672 1.055 1.316 1.477 2.047.474.699.842 1.458 1.228 2.206.327.775.67 1.546.907 2.354.14.397.258.801.348 1.212.094.41.22.812.278 1.229.069.415.15.828.209 1.244l.135 1.253c.054.839.099 1.679.075 2.519-.006.839-.061 1.679-.148 2.513-.168 1.671-.47 3.326-.877 4.953-.826 3.243-2.019 6.401-3.593 9.355z"/><g stroke="#3C5052" stroke-width=".25" stroke-linecap="round" stroke-linejoin="round" fill="none"><path d="M191.745 346.177l.02-.012c.013.022 1.832 1.424 1.849 1.452.051.087 3.604-2.185 3.649-2.106.008.013-1.281 2.393-1.27 2.413.028.049 2.894-1.715 2.912-1.682l1.048 1.982.249-.145M193.562 342.51l8.123-4.69c.071.123-7.49 6.431-7.464 6.476.04.07 7.894-4.647 7.933-4.58.021.037.438 2.935.455 2.964.031.055 1.604-1.011 1.641-.947.018.03-.484 2.516-.475 2.531.03.054 1.166-.714 1.184-.684.017.029-.374 2.905-.36 2.929.017.029 1.21-.751 1.232-.712.017.029-1.156 2.333-1.143 2.354.031.055.646-.4.657-.38l.187 2.657c.008.013.726-.447.738-.426M190.957 309.5c.023.041 5.377-3.196 5.417-3.127.066.115-7.42 6.048-7.355 6.159.086.149 8.039-4.808 8.111-4.683.068.118-9.412 8.267-9.341 8.391.056.097 11.411-6.845 11.522-6.652.094.162-12.815 9.913-12.731 10.059.142.244 14.167-8.463 14.29-8.25.123.214-14.922 10.81-14.809 11.006.107.186 15.896-9.414 15.998-9.236.059.101-15.088 11.057-15.005 11.2.112.194 15.729-9.325 15.835-9.142.066.116-15.817 10.853-15.685 11.082.062.108 16.162-9.549 16.257-9.386.086.149-16.965 12.135-16.874 12.291.1.173 18.397-10.836 18.49-10.675.111.192-17.92 12.174-17.841 12.311.091.157 17.001-10.129 17.137-9.894.078.136-16.249 12.365-16.172 12.5.062.107 17.192-10.22 17.319-9.999.089.153-16.081 12.02-15.954 12.24.055.094 15.378-9.205 15.52-8.96.078.136-14.47 10.428-14.378 10.588.122.211 13.425-7.953 13.513-7.802.1.174-17.49 12.518-17.391 12.69.101.174 16.96-10.019 17.059-9.849.111.193-17.895 13.2-17.777 13.403.152.263 15.918-9.467 16.037-9.259.104.179-15.906 10.875-15.828 11.011.03.053 2.142-1.267 2.155-1.244.022.039-1.839 3.129-1.83 3.145l.174-.1"/></g><path fill="#3C5052" d="M203.642 318.337l-.034.365c-.044.234 0 .597-.165 1.021-.07.212-.124.458-.222.71l-.402.78c-.171.262-.397.512-.613.792-.248.248-.543.479-.841.729-.658.4-1.438.801-2.341.845-.91.14-1.816-.072-2.731-.43-.885-.412-1.646-1.094-2.231-1.918-.558-.854-.855-1.856-.905-2.904.024-1.01.301-2.059.847-2.93.591-.839 1.377-1.513 2.271-1.921.903-.349 1.864-.557 2.752-.407.437.009.861.165 1.267.297.404.134.732.388 1.078.563.297.252.592.484.84.734.216.28.438.532.612.792l.408.779c.101.251.153.497.222.71.162.424.115.79.158 1.024l.03.369zm-.026-.002l-.042-.362c-.05-.232-.014-.595-.187-1.01-.074-.208-.134-.448-.24-.691l-.423-.751c-.177-.25-.407-.486-.625-.751-.25-.232-.544-.446-.838-.678-.665-.362-1.381-.706-2.261-.777-.854-.149-1.767.051-2.632.377-.857.386-1.605 1.032-2.184 1.827-.545.83-.835 1.789-.893 2.822.032.994.3 2 .834 2.847.583.811 1.356 1.45 2.222 1.833.212.1.444.142.66.215.218.071.436.137.67.141l.68.061c.204.006.433-.041.643-.058.86-.078 1.61-.431 2.265-.793.293-.232.587-.447.837-.682.218-.264.444-.503.625-.75l.429-.75c.109-.242.169-.482.24-.691.171-.414.133-.781.181-1.014l.039-.365zM201.607 329.587l-.016.181c-.021.116.003.293-.077.504l-.104.355-.192.393-.295.404c-.121.127-.264.251-.414.376-.33.203-.723.406-1.178.429-.471.073-.901-.05-1.366-.238-.435-.22-.812-.554-1.104-.964-.281-.42-.435-.923-.465-1.439.005-.506.137-1.035.406-1.479.292-.426.687-.771 1.137-.981.455-.184.946-.279 1.393-.203.436.023.862.242 1.177.449.147.129.293.248.414.375l.298.402.191.394.104.354c.079.209.056.391.077.507l.014.181zm-.025-.002l-.021-.178c-.024-.114-.007-.292-.093-.496-.049-.215-.178-.446-.342-.698l-.312-.358-.413-.319c-.333-.17-.661-.322-1.095-.357-.412-.071-.845.035-1.262.186-.412.181-.774.487-1.059.866-.269.396-.416.856-.452 1.357.011.49.137.978.394 1.396.285.396.664.713 1.093.885.406.145.9.223 1.288.149.414-.038.775-.207 1.093-.38l.412-.32.315-.356c.164-.252.293-.483.341-.697.085-.202.068-.385.093-.498l.02-.182zM204.549 350.87s12.501-.044 25.003-.087c6.25-.005 12.501-.05 17.188.009l7.813.078v.025l-7.813.078c-4.688.059-10.938.014-17.188.009-12.502-.043-25.003-.087-25.003-.087v-.025zM182.087 353.332s8.471-.044 16.942-.087c4.235-.027 8.472-.043 11.647.009 3.177.023 5.295.078 5.295.078v.025s-2.118.055-5.295.078c-3.176.052-7.412.036-11.647.009-8.472-.043-16.942-.087-16.942-.087v-.025zM190.231 357.509s8.471-.044 16.942-.087c4.235-.027 8.472-.043 11.647.009 3.177.023 5.295.078 5.295.078v.025s-2.118.055-5.295.078c-3.176.052-7.412.036-11.647.009-8.472-.043-16.942-.087-16.942-.087v-.025zM287.46 123.016c-.39-1.686-1.01-3.311-1.773-4.855-.774-1.539-1.753-2.983-2.972-4.196-.31-.298-.627-.586-.966-.851-.34-.259-.682-.521-1.054-.734-.36-.233-.748-.416-1.132-.606-.396-.16-.79-.33-1.203-.441-.404-.143-.828-.214-1.245-.308-.425-.055-.847-.133-1.276-.14-.428-.037-.857-.02-1.286-.005-.429.01-.854.083-1.282.121l-.053.004-.029-.035-.403-.48.105.021h-.002l-.087.043-.021-.068-.002-.005-.005-.005c-.118-.149-.354-.18-.512-.067l-.058.041-.049-.05-.003-.002h.117l-.027.025.013-.011-.008.005.014-.078.001.003.016.05-.035.035c-.138.134-.148.374-.021.52l-.005-.005.005.005.137.145h-.186l.061-.131.404.482.026.031-.011.041c-.228.833-.435 1.675-.517 2.537-.059.429-.073.86-.079 1.292-.006.432.024.864.067 1.293.052.429.118.856.225 1.276.094.421.229.835.378 1.24.151.406.338.796.537 1.18.212.377.426.753.679 1.104.983 1.426 2.269 2.625 3.69 3.608.712.491 1.457.935 2.229 1.325.776.392 1.557.737 2.392 1.021l.112.039-.076.108c-.161.23-.3.474-.397.737-.09.265-.154.539-.169.819-.036.56.073 1.125.265 1.658.192.534.469 1.038.796 1.505.163.234.342.457.529.672.201.212.369.434.615.538.241.115.521.174.776.137.127-.019.246-.064.338-.14.102-.091.201-.19.257-.295.138-.216.107-.48-.009-.722-.122-.249-.278-.503-.431-.741-.144-.248-.317-.472-.448-.762-.116-.293-.159-.589-.179-.889-.024-.59.049-1.226.449-1.733l.044-.056.075.017c.697.154 1.452.246 2.089-.036l.118-.052.048.118 1.246 3.046-.207-.035 2.721-3.061.073.206-3.336-.523-.19-.03.107-.164c.38-.579.418-1.338.382-2.051l-.004-.072.058-.031c.562-.308 1.199-.274 1.773-.152.29.068.576.162.838.322.268.181.447.378.676.569.215.194.436.388.657.549.232.167.493.241.748.137.248-.097.484-.276.558-.541.083-.259.072-.551-.003-.817-.064-.272-.261-.483-.438-.718-.181-.222-.372-.438-.576-.64-.409-.405-.864-.766-1.365-1.049-.5-.283-1.05-.488-1.623-.545-.286-.032-.575-.013-.858.034-.284.055-.555.155-.815.281l-.015.007-.003-.019zm.02-.019c.257-.127.523-.231.805-.29.287-.051.58-.075.871-.046.583.049 1.145.25 1.654.529.512.281.979.639 1.398 1.043.21.202.407.417.596.643.173.222.389.449.468.75.085.288.104.6.015.896-.083.309-.353.525-.635.638-.293.135-.658.029-.889-.141-.25-.175-.467-.363-.685-.554-.219-.178-.442-.404-.659-.542-.235-.139-.509-.227-.782-.286-.543-.113-1.152-.118-1.614.148l.054-.103c.041.731.039 1.535-.401 2.208l-.083-.194 3.336.523.225.036-.151.17-2.721 3.06-.132.148-.075-.184-1.246-3.047.166.065c-.735.319-1.528.205-2.247.048l.119-.039c-.331.412-.42 1.011-.394 1.562.017.277.062.562.159.808.104.24.286.483.434.735.158.25.307.49.439.762.138.271.184.654-.002.939-.086.15-.197.256-.311.357-.133.109-.295.168-.453.191-.319.043-.632-.027-.912-.16-.296-.131-.493-.388-.686-.593-.193-.222-.377-.452-.545-.693-.337-.482-.621-1.003-.821-1.56-.2-.555-.312-1.153-.266-1.75.02-.299.091-.592.19-.875.108-.281.26-.54.435-.783l.037.147c-.808-.283-1.615-.65-2.385-1.051-.773-.402-1.52-.858-2.231-1.36-1.424-1.001-2.711-2.221-3.69-3.666-.989-1.437-1.623-3.112-1.842-4.843-.047-.433-.083-.869-.08-1.305.001-.437.012-.873.066-1.306.074-.871.274-1.723.495-2.566l.016.071-.408-.479-.112-.128.173-.001h.001l-.048.144-.022-.02-.001-.001-.004-.004c-.182-.205-.171-.544.024-.739l-.02.084-.001-.003-.017-.05.031-.028.021-.019.013-.011.002-.004.057-.06.061.06.003.002-.105-.009c.221-.162.562-.125.739.093l-.005-.005.018.023-.107-.025h.001l.061-.031.045.052.407.477-.082-.031c.434-.043.863-.121 1.299-.135.436-.02.871-.04 1.308-.007.437.003.868.079 1.302.13.426.093.861.159 1.274.305.422.118.822.295 1.226.463.391.197.784.388 1.149.629.377.22.723.49 1.066.757.341.272.661.568.972.873 1.226 1.241 2.198 2.708 2.964 4.264.758 1.554 1.318 3.206 1.675 4.894z"/><g stroke="#3C5052" stroke-width=".25" stroke-linecap="round" stroke-linejoin="round" fill="none"><path d="M288.073 125.533c.212.032.118-1.873.273-1.851.024.003 1.691 1.207 1.83 1.228.125.019.066-.558.082-.555 0 0 1.215 1.601 1.365 1.623.117.017.174-1.181.174-1.181M284.896 127.068l1.068-7.236 1.374 6.83.421-2.852M273.032 118.423c.358.052.969-6.556.969-6.556.625.092.136 8.437.65 8.512.684.101.581-7.812 1.141-7.729.137.02.435 10.437.841 10.496.484.071 1.548-10.488 1.548-10.488s-.389 11.524.313 11.629c.107.016 1.69-11.463 1.69-11.463.831.123-1.305 12.534-.38 12.671.618.09 1.494-11.713 1.723-11.679.1.015-.419 12.168.038 12.236 0 0 .976-10.754 1.574-10.665.668.099-.545 14.699-.545 14.699l1.819-12.325c.541.081-.07 15.164-.07 15.164.114.018.111-1.091.159-1.083"/></g><path fill="#3C5052" d="M271.587 108.568l-2.557-2.785c-.645-.691-1.274-1.396-1.713-1.954-.442-.555-.714-.946-.714-.946l.02-.016s.352.319.844.831c.496.507 1.112 1.224 1.714 1.954l2.426 2.9-.02.016zM303.245 135.913l-6.315-3.31c-1.581-.821-3.154-1.66-4.312-2.329-1.16-.663-1.919-1.135-1.919-1.135l.012-.021s.81.375 2.002.981c1.194.602 2.758 1.456 4.313 2.328l6.231 3.464-.012.022zM299.146 138.021l-4.863-4.315c-1.22-1.074-2.427-2.162-3.302-3.012-.879-.846-1.443-1.434-1.443-1.434l.018-.018s.637.507 1.56 1.305c.927.792 2.121 1.895 3.303 3.011l4.746 4.445-.019.018zM265.635 105.42l-1.526-1.61c-.388-.397-.76-.809-1.005-1.146-.249-.334-.392-.579-.392-.579l.02-.016s.223.172.521.464c.303.287.661.71 1.006 1.146l1.396 1.726-.02.015zM264.657 98.908l-1.527-1.61c-.387-.397-.759-.809-1.004-1.146-.249-.334-.392-.579-.392-.579l.02-.016s.223.172.521.464c.303.287.661.71 1.005 1.146l1.396 1.726-.019.015zM297.241 140.963l-3.779-4.843c-.949-1.207-1.885-2.425-2.549-3.366-.67-.938-1.09-1.582-1.09-1.582l.02-.016s.507.579 1.229 1.478c.727.895 1.646 2.124 2.551 3.365 1.819 2.475 3.639 4.948 3.639 4.948l-.021.016zM292.868 140.017l-2.234-4.341c-.564-1.082-1.111-2.173-1.48-3.011-.375-.835-.596-1.406-.596-1.406l.021-.012s.318.523.752 1.33c.438.805.969 1.903 1.482 3.011l2.076 4.417-.021.012z"/><path stroke="#3C5052" stroke-width=".25" stroke-linecap="round" stroke-linejoin="round" d="M233.646 78.455c-1.354.272-3.583-.367-3.742 2.077-.071 1.11 1.674 3.471 3.068 3.147 1.973-.457 1.227-3.271.405-4.145M229.409 87.151c2.417.847 2.018.663 3.965 2.214-.003-.544-1.122-3.047-1.029-3.571M230.185 86.243c1.758 1.862 1.488 1.516 2.505 3.787.247-.485.402-3.222.726-3.646M228.702 105.397c-1.217-.657-1.937.334-3.051.286.582-1.768 1.128-3.364 1.418-5.227.335-2.157-.245-4.152-.965-6.162-.531-1.487-.565-1.321.197-2.448.519-.768 1.104-1.484 1.604-2.278 1.124-1.787 3.027-3.878 3.057-6.085M220.045 103.678c-.452-1.157-1.689-1.565-2.662-2.21.82-.478 1.623-.604 2.448-1.294 1.186-.99 2.22-2.131 3.121-3.417.673-.96 2.344-2.812 2.325-3.931M236.892 86.517c.344-1.229-1.064-3.24.15-3.771.694-.303 1.577.506 1.721 1.342.531-1.312 3.117-.127 2.61 1.206-.676 1.778-3.166-.832-3.925.551M234.227 115.286M246.476 113.492c-.322-.382-.82-.548-1.355-.39-.592 1.217.927 1.821 1.077 2.971.243-1.051 1.559-.618 1.834-1.47.299-.924-.872-.853-1.556-.836" fill="none"/></svg>