<svg xmlns="http://www.w3.org/2000/svg" width="133.626" height="193.064" viewBox="0 0 133.626 193.064"><g fill-rule="evenodd" clip-rule="evenodd"><path opacity=".1" fill="#64594F" d="M130.403 20.705l-10.706-6.528-10.803-6.583c-3.106-1.894-7.146-.912-9.039 2.194l-26.973 44.256-2.858 4.691-1.559 2.556 10.062 6.133-.044.073-10.063-6.133-66.812 109.621 16.417 10.005v.001l-11.652-7.101-3.228 5.295 22.772 13.879 3.228-5.295 5.296 3.227 66.813-109.62 1.602-2.63 1.521-2.493 1.338-2.196 26.975-44.258c1.892-3.106.806-7.211-2.287-9.094z"/><path fill="#3D575F" d="M32.832 184.368l-32.832-20.009 66.807-109.621 32.832 20.009z"/><path fill="#F9CB9F" d="M107.287.964l21.51 13.11c3.09 1.884 4.084 5.934 2.192 9.039l-28.313 46.453c-1.885 3.094-34.626-16.862-32.741-19.956l28.313-46.452c1.893-3.106 5.931-4.088 9.039-2.194z"/><path fill="#1E3739" d="M101.158 72.061l-1.558 2.556-32.737-19.958 1.558-2.556z"/><path fill="#E2B992" d="M104.016 67.37l-2.859 4.692-32.745-19.95 2.859-4.692zM111.994 27.075l-9.002-5.487-22.915 37.6 9.002 5.486 4.766 2.906 22.917-37.6z"/><path fill="#163E47" d="M60.675 111.277l-9.002-5.488 28.404-46.601 9.002 5.486 4.766 2.906-28.403 46.6z"/><path fill="#F9CB9F" d="M109.714 25.684l-8.311-5.064-51.319 84.201 8.311 5.064 4.399 2.682 51.319-84.2z"/><path fill="#FBD5B0" d="M50.084 104.821l8.311 5.064 4.399 2.682 51.319-84.2z"/><path fill="#163E47" d="M4.76 167.265l22.774 13.882-3.228 5.295-22.774-13.882z"/><path opacity=".4" fill="#D0D2D3" d="M128.797 14.075l-10.709-6.528-104.899 172.109 11.12 6.78 3.227-5.297 5.297 3.228 66.813-109.621 1.603-2.628 1.521-2.494 1.338-2.197 26.975-44.256c1.891-3.107.804-7.213-2.286-9.096z"/></g></svg>