<svg xmlns="http://www.w3.org/2000/svg" width="99.756" height="159.174" viewBox="0 0 99.756 159.174"><path opacity=".1" fill="#64594F" d="M94.971 17.046l4.785-8.092-.922-3.314-6.153-3.64-3.067.953-4.783 8.093-1.187-.703.006-.012-2.558-1.495-2.136-1.262-25.891 43.767 2.136 1.265 24.312-41.102 1.607.941-24 40.574-.634 1.069 1.068.632-49.571 83.802.871.516-3.328 14.603-2.526 4.27 2.135 1.263 2.526-4.269 11.447-9.801 1.152.682 49.572-83.807 1.068.631.632-1.068 25.572-43.232z"/><path fill="#FFDFA1" d="M95.834 3.64l-6.153-3.64-3.067.953-4.784 8.094 10.141 5.999 4.785-8.092z"/><path fill="#E7C98B" d="M81.632 8.928l10.339 6.118 4.785-8.092z"/><path fill="#FFDFA1" d="M79.7 7.785l14.409 8.527-25.584 43.231-14.409-8.527zM78.092 6.836l-2.136-1.262-25.891 43.767 2.136 1.265 24.312-41.102 1.6.947 1.582-2.669z"/><path fill="#E7C98B" d="M78.092 6.836l-2.136-1.262-13.26 22.416 13.817-18.486 1.6.947 1.582-2.669z"/><path fill="#FFDFA1" d="M54.552 52.713l12.277 7.26-49.56 83.804-12.277-7.26z"/><path fill="#E7C98B" d="M54.553 52.718l12.277 7.262-.631 1.067-12.277-7.262z"/><path fill="#F5E9D1" d="M54.117 51.021l14.414 8.523-.633 1.07-14.414-8.523z"/><path fill="#FFDFA1" d="M2.528 151.635l2.135 1.262-2.524 4.271-2.135-1.262z"/><path fill="#F5E9D1" d="M4.746 152.954l-2.052-1.213 3.16-14.705 10.255 6.068z"/><path fill="#E7C98B" d="M94.104 16.31l-7.304-4.324-18.236 47.501zM14.626 144.389l1.483-1.285-10.255-6.068-.412 1.92z"/><path opacity=".4" fill="#FFDFA1" d="M91.971 15.046l4.785-8.092-.922-3.314-3.202-1.895-91.564 154.797 1.067.632 2.526-4.271.085.051 9.88-8.565 1.483-1.285 1.151.682 48.939-82.739.633-1.068 1.068.631.632-1.068.032-.055 25.54-43.177z"/></svg>